<?xml version="1.0" encoding="UTF-8"?>
<svg version="1.1" xmlns="http://www.w3.org/2000/svg" width="2000" height="1952">
<path d="M0 0 C5.13598499 -0.08921612 10.26242637 -0.05180293 15.39794922 0.05029297 C16.92282959 0.07712158 16.92282959 0.07712158 18.47851562 0.10449219 C75.9433206 1.23254467 134.3006943 8.35479949 188.39404297 28.66748047 C195.21648279 31.12998148 201.92947719 32.41792203 209.08544922 33.48779297 C279.2665086 44.87376667 347.75116936 71.37800682 401.39794922 119.05029297 C402.1253833 119.69160156 402.85281738 120.33291016 403.60229492 120.99365234 C410.09636222 126.76843396 416.31415252 132.78327941 422.46044922 138.92529297 C423.38921875 139.84181641 424.31798828 140.75833984 425.27490234 141.70263672 C431.42414332 147.83893192 437.01447504 154.23668241 442.39794922 161.05029297 C443.55939988 162.48649709 444.72085766 163.92269546 445.88232422 165.35888672 C459.04566692 181.90262174 470.07580562 199.62658892 480.39794922 218.05029297 C480.75163574 218.6711377 481.10532227 219.29198242 481.46972656 219.93164062 C504.30994717 260.10506324 517.57561287 305.90953134 526.39794922 351.05029297 C526.75131348 352.85626953 526.75131348 352.85626953 527.11181641 354.69873047 C537.00203611 406.28024721 538.58237539 458.56911903 538.49922943 510.94221497 C538.49341474 515.2146511 538.49325997 519.48708135 538.49255371 523.75952148 C538.48736433 536.14811551 538.47340344 548.53670462 538.46044922 560.92529297 C538.43982422 588.68654297 538.41919922 616.44779297 538.39794922 645.05029297 C447.97794922 645.05029297 357.55794922 645.05029297 264.39794922 645.05029297 C264.39794922 636.47029297 264.39794922 627.89029297 264.39794922 619.05029297 C231.06794922 619.05029297 197.73794922 619.05029297 163.39794922 619.05029297 C163.33736328 606.65853516 163.27677734 594.26677734 163.21435547 581.49951172 C163.17381248 573.60172242 163.13304979 565.70393525 163.09130859 557.80615234 C163.02524239 545.29826969 162.96001768 532.79038712 162.90063477 520.2824707 C162.85736068 511.16845612 162.81098339 502.05446316 162.76107067 492.94048244 C162.73481198 488.12682469 162.70997713 483.31317026 162.6888752 478.49948692 C162.5871609 453.14699983 162.5871609 453.14699983 161.95629883 427.8034668 C161.90239282 426.27357258 161.90239282 426.27357258 161.8473978 424.71277142 C159.90636679 377.47071148 148.19370317 328.2945676 112.39794922 295.05029297 C111.91712891 294.51017578 111.43630859 293.97005859 110.94091797 293.41357422 C108.0608555 290.63989928 105.92992937 290.08372831 101.91748047 289.83154297 C67.56381334 290.48319327 33.84906146 303.83769344 9.70922852 328.32299805 C-23.71402084 363.56519975 -31.79124247 416.25808893 -31.73068523 462.8664465 C-31.73203351 464.66477714 -31.73381832 466.4631075 -31.73599747 468.26143733 C-31.74071379 473.19877282 -31.73923024 478.1360898 -31.7367197 483.07342619 C-31.73508384 488.44674837 -31.73922978 493.82006664 -31.74262887 499.19338757 C-31.7477798 508.60969899 -31.7492006 518.02600527 -31.74817276 527.44231796 C-31.74664801 541.44514172 -31.75080922 555.44795978 -31.75604739 569.45078242 C-31.76572079 595.91598539 -31.76853226 622.38118632 -31.76910444 648.84639084 C-31.76916919 651.76459534 -31.76923713 654.68279985 -31.76930785 657.60100436 C-31.76932486 658.32519005 -31.76934186 659.04937574 -31.76935938 659.79550645 C-31.76976806 675.85251906 -31.77195871 691.90953128 -31.7744637 707.96654368 C-31.77549208 714.58098938 -31.77648212 721.19543509 -31.77747995 727.80988079 C-31.77759054 728.54075268 -31.77770113 729.27162457 -31.77781507 730.0246441 C-31.78413833 771.90203386 -31.78826428 813.77942336 -31.78780651 855.65681362 C-31.78779073 857.22366361 -31.787775 858.79051361 -31.7877593 860.3573636 C-31.78768592 867.43134639 -31.78759775 874.50532918 -31.78750542 881.57931197 C-31.78746429 884.73368993 -31.78742415 887.88806789 -31.7873841 891.04244584 C-31.78736371 892.62126827 -31.78734269 894.20009069 -31.78732105 895.77891312 C-31.78664096 945.69156034 -31.79395574 995.60420047 -31.80786133 1045.5168457 C-31.81136248 1058.09065721 -31.81483199 1070.66446873 -31.81812572 1083.2382803 C-31.81843004 1084.39967961 -31.81843004 1084.39967961 -31.81874049 1085.58454153 C-31.82495789 1109.45764962 -31.82872153 1133.33075714 -31.82998371 1157.203866 C-31.83002366 1157.95366667 -31.83006361 1158.70346734 -31.83010477 1159.47598923 C-31.83095815 1175.93799221 -31.83121921 1192.39999514 -31.8309344 1208.86199814 C-31.83083792 1214.75282391 -31.83078587 1220.64364969 -31.83075567 1226.53447547 C-31.83074775 1227.99991055 -31.83073755 1229.46534564 -31.83072505 1230.93078072 C-31.83054891 1254.25660116 -31.8362393 1277.58241552 -31.84487886 1300.90823422 C-31.85378078 1325.06522703 -31.8553427 1349.22220945 -31.84856673 1373.37920319 C-31.84487278 1387.29878519 -31.84669886 1401.21834055 -31.85650907 1415.13791972 C-31.86251229 1424.4427008 -31.86120978 1433.74746261 -31.85403857 1443.05224281 C-31.85015998 1448.34928871 -31.84937306 1453.64628308 -31.85749593 1458.94332533 C-31.86483879 1463.77420945 -31.86276393 1468.60499971 -31.85357206 1473.43587983 C-31.85186849 1475.1610556 -31.85342007 1476.88623896 -31.85887327 1478.61140696 C-31.90716403 1495.00310369 -30.75782719 1511.39951013 -27.85205078 1527.55029297 C-27.68431152 1528.49259766 -27.51657227 1529.43490234 -27.34375 1530.40576172 C-22.39945724 1556.8813669 -12.9536159 1583.13168136 4.39794922 1604.05029297 C5.11724609 1604.92169922 5.83654297 1605.79310547 6.57763672 1606.69091797 C8.77002244 1609.23439749 11.06333534 1611.63746757 13.39794922 1614.05029297 C14.13658203 1614.93845703 14.87521484 1615.82662109 15.63623047 1616.74169922 C18.94529774 1620.19853982 21.81012741 1622.77262039 26.73242188 1623.30078125 C33.38238751 1623.30955264 39.86900025 1622.21686839 46.39794922 1621.05029297 C47.24019043 1620.91365234 48.08243164 1620.77701172 48.95019531 1620.63623047 C71.93942666 1616.86401796 93.37836249 1607.89287267 111.39794922 1593.05029297 C112.33380859 1592.27943359 113.26966797 1591.50857422 114.23388672 1590.71435547 C147.29196288 1562.10106266 158.12295077 1515.85854899 161.39794922 1474.05029297 C161.63935731 1469.85728332 161.8027734 1465.66361577 161.94761658 1461.46624756 C161.98962627 1460.2572384 162.03163597 1459.04822925 162.07491869 1457.80258346 C162.53310198 1443.44759373 162.57331884 1429.09282212 162.59855783 1414.73218298 C162.60673423 1410.67809404 162.62036942 1406.62402245 162.63327026 1402.56994629 C162.65479474 1395.58157154 162.67302397 1388.59319483 162.6888752 1381.60480499 C162.71179709 1371.50134306 162.73990605 1361.39790051 162.76919448 1351.29445526 C162.8166008 1334.89374055 162.85993605 1318.49301779 162.90063477 1302.09228516 C162.94012824 1286.18082049 162.98158652 1270.26936289 163.02563477 1254.35791016 C163.02972117 1252.88142075 163.02972117 1252.88142075 163.03389014 1251.37510327 C163.04757189 1246.43596928 163.06129171 1241.49683541 163.07503045 1236.55770159 C163.18857056 1195.72191339 163.29521577 1154.88610968 163.39794922 1114.05029297 C149.20794922 1114.05029297 135.01794922 1114.05029297 120.39794922 1114.05029297 C120.39794922 1105.47029297 120.39794922 1096.89029297 120.39794922 1088.05029297 C87.06794922 1088.05029297 53.73794922 1088.05029297 19.39794922 1088.05029297 C19.39794922 1001.26029297 19.39794922 914.47029297 19.39794922 825.05029297 C157.00794922 825.05029297 294.61794922 825.05029297 436.39794922 825.05029297 C436.39794922 833.63029297 436.39794922 842.21029297 436.39794922 851.05029297 C470.05794922 851.05029297 503.71794922 851.05029297 538.39794922 851.05029297 C538.43181947 909.04734567 538.46407937 967.04439823 538.4826355 1025.04145813 C538.48291161 1025.90223415 538.48318773 1026.76301017 538.48347221 1027.64987031 C538.48946046 1046.36472987 538.49500048 1065.07958954 538.50007988 1083.79444937 C538.50257417 1092.97453854 538.50516733 1102.15462767 538.5078125 1111.3347168 C538.50807402 1112.2481609 538.50833554 1113.16160499 538.50860498 1114.10272922 C538.51710105 1143.61680605 538.53210355 1173.13087514 538.55054366 1202.6449473 C538.56948618 1233.01890441 538.58173792 1263.39285724 538.5857792 1293.76682016 C538.58635536 1298.07417439 538.58700663 1302.38152861 538.5877037 1306.68888283 C538.58783855 1307.53648634 538.5879734 1308.38408985 538.58811233 1309.25737831 C538.5904597 1322.8054644 538.59969182 1336.35353713 538.61161329 1349.90161781 C538.62349843 1363.58013209 538.62785793 1377.25863335 538.62495197 1390.93715259 C538.62358106 1398.32483873 538.62527077 1405.71248934 538.63636017 1413.10016823 C538.67383182 1439.1241719 538.66978011 1465.12579701 537.49703979 1491.12849426 C537.43750243 1492.45970624 537.43750243 1492.45970624 537.37676229 1493.81781139 C533.21951819 1583.67569081 513.0547237 1678.51575475 460.39794922 1753.05029297 C459.60230192 1754.19477251 458.80673379 1755.33930709 458.01123047 1756.48388672 C452.78655751 1763.94813758 447.27447547 1771.08227262 441.39794922 1778.05029297 C440.476924 1779.15798996 439.55637168 1780.26608029 438.63623047 1781.37451172 C434.27862902 1786.60095324 429.90490779 1791.72902904 424.99560547 1796.45263672 C423.25023627 1798.19800591 421.67666496 1800.03872396 420.08544922 1801.92529297 C416.66542577 1805.88732907 412.90436912 1809.32880198 408.97607422 1812.78076172 C407.34169092 1814.21951429 405.72460502 1815.67836057 404.13232422 1817.16357422 C384.43588243 1835.48662466 361.20566424 1850.66097653 337.39794922 1863.05029297 C336.18268555 1863.69659668 336.18268555 1863.69659668 334.94287109 1864.35595703 C285.59507487 1890.53550873 230.80057859 1903.45634602 175.58544922 1909.30029297 C174.79924194 1909.38355835 174.01303467 1909.46682373 173.20300293 1909.5526123 C153.25369082 1911.63539965 133.46920195 1912.23852115 113.41967773 1912.2355957 C110.63673301 1912.23551514 107.85395537 1912.24235973 105.07104492 1912.25610352 C80.06843063 1912.37743941 55.15321632 1911.54637001 30.33544922 1908.23779297 C29.68882324 1908.15348022 29.04219727 1908.06916748 28.37597656 1907.9822998 C-1.96628351 1904.01881926 -31.75294271 1898.40864555 -60.63479614 1888.20428467 C-61.30461517 1887.96784241 -61.9744342 1887.73140015 -62.66455078 1887.48779297 C-63.33525604 1887.25102844 -64.0059613 1887.01426392 -64.69699097 1886.77032471 C-76.11124688 1882.78772435 -87.50052677 1880.28918846 -99.41455078 1878.30029297 C-100.24565369 1878.16125549 -101.07675659 1878.02221802 -101.93304443 1877.87896729 C-103.593322 1877.60184299 -105.2536305 1877.32490402 -106.91397095 1877.04815674 C-108.12468765 1876.84618683 -108.12468765 1876.84618683 -109.35986328 1876.64013672 C-110.15774261 1876.50726257 -110.95562195 1876.37438843 -111.77767944 1876.23748779 C-184.76737375 1863.91164794 -264.90494965 1826.92116363 -312.89111328 1769.06982422 C-315.07530879 1766.49167564 -317.40689848 1764.06922928 -319.72705078 1761.61279297 C-335.14576581 1744.99220339 -348.35774418 1725.69693856 -359.60205078 1706.05029297 C-360.17705322 1705.06053467 -360.17705322 1705.06053467 -360.76367188 1704.05078125 C-400.61565345 1635.31630014 -417.98251302 1555.79853 -422.60205078 1477.05029297 C-422.72537725 1475.19789676 -422.72537725 1475.19789676 -422.85119516 1473.30807841 C-423.97371539 1454.855651 -423.74644724 1436.36489184 -423.7367197 1417.88706325 C-423.73507316 1412.6527747 -423.73923856 1407.41849005 -423.74262887 1402.18420279 C-423.74776278 1393.02554037 -423.74920358 1383.86688324 -423.74817276 1374.70821953 C-423.74664355 1361.08791062 -423.75081907 1347.46760753 -423.75604739 1333.84729975 C-423.76570498 1308.10009122 -423.76853168 1282.35288572 -423.76910444 1256.6056758 C-423.7691692 1253.76921899 -423.76923714 1250.93276218 -423.76930785 1248.09630537 C-423.76932486 1247.39234782 -423.76934186 1246.68839027 -423.76935938 1245.96310067 C-423.7697686 1230.33320313 -423.77196098 1214.70330599 -423.7744637 1199.07340867 C-423.77549213 1192.62864487 -423.77648219 1186.18388107 -423.77747995 1179.73911726 C-423.77759054 1179.02692639 -423.77770113 1178.31473552 -423.77781507 1177.58096311 C-423.78413571 1136.79022414 -423.78826456 1095.99948544 -423.78780651 1055.20874596 C-423.78779073 1053.68353102 -423.787775 1052.15831609 -423.7877593 1050.63310116 C-423.78768592 1043.74758135 -423.78759776 1036.86206155 -423.78750542 1029.97654174 C-423.7874643 1026.90640403 -423.78742415 1023.83626633 -423.7873841 1020.76612862 C-423.78736371 1019.2294723 -423.78734269 1017.69281599 -423.78732105 1016.15615967 C-423.78664118 967.59222182 -423.79395299 919.02829127 -423.80786133 870.46435547 C-423.81136273 858.23192026 -423.81483236 845.99948505 -423.81812572 833.76704979 C-423.8183286 833.01371417 -423.81853147 832.26037856 -423.81874049 831.48421459 C-423.8249623 808.23959662 -423.82872238 784.99497925 -423.82998371 761.75036049 C-423.83002366 761.01981173 -423.83006361 760.28926297 -423.83010477 759.53657637 C-423.83095834 743.49371081 -423.83121915 727.45084529 -423.8309344 711.4079797 C-423.83083793 705.66647507 -423.83078587 699.92497044 -423.83075567 694.18346581 C-423.83074775 692.75528302 -423.83073755 691.32710023 -423.83072505 689.89891744 C-423.83054924 667.20927362 -423.83622575 644.51963607 -423.84487886 621.82999404 C-423.85380059 598.31633505 -423.85532683 574.80268867 -423.84856673 551.28902803 C-423.84488548 537.75671222 -423.84666061 524.22442386 -423.85650907 510.69211098 C-423.86254522 501.62792039 -423.86117361 492.5637495 -423.85403857 483.49955978 C-423.85018745 478.35156947 -423.84929202 473.20363193 -423.85749593 468.05564551 C-423.90252178 437.83886969 -423.28875974 407.666833 -419.85205078 377.61279297 C-419.72849716 376.50142975 -419.72849716 376.50142975 -419.60244751 375.36761475 C-412.89407337 315.46855854 -398.14617084 257.31663551 -371.60205078 203.05029297 C-371.18632812 202.19822266 -370.77060547 201.34615234 -370.34228516 200.46826172 C-360.61260745 180.75411934 -348.83973079 162.08216158 -335.09570312 144.92919922 C-333.65166304 143.11270159 -332.24130967 141.27512752 -330.84033203 139.42529297 C-323.98789811 130.4209478 -316.48320455 122.16222723 -308.60205078 114.05029297 C-307.87469727 113.30102539 -307.14734375 112.55175781 -306.39794922 111.77978516 C-297.84291345 103.00715628 -289.32623748 94.52603002 -279.60205078 87.05029297 C-278.63396484 86.25365234 -277.66587891 85.45701172 -276.66845703 84.63623047 C-260.33569338 71.25160097 -242.33329127 59.76394484 -223.60205078 50.05029297 C-222.94366211 49.70595215 -222.28527344 49.36161133 -221.60693359 49.00683594 C-216.98019177 46.59922935 -212.30722567 44.30026175 -207.60205078 42.05029297 C-206.51778809 41.52701416 -206.51778809 41.52701416 -205.41162109 40.99316406 C-141.60148151 10.43291011 -70.0167015 1.3532971 0 0 Z " fill="#000000" transform="translate(442.60205078125,16.94970703125)"/>
<path d="M0 0 C1.53503174 0.02682861 1.53503174 0.02682861 3.10107422 0.05419922 C53.94265183 1.04683085 108.48453397 5.67993973 156.30078125 23.9765625 C168.38873936 28.59481107 180.21744524 31.35344007 192.9375 33.5 C252.76791888 43.61631679 310.11823281 64.31015549 359 101 C359.57556641 101.43135254 360.15113281 101.86270508 360.74414062 102.30712891 C369.12084354 108.63121636 376.90208447 115.426953 384.52880859 122.63037109 C386.66246754 124.61673464 388.86594867 126.5212104 391.0625 128.4375 C397.13942926 133.89493647 402.58385207 139.89765139 408 146 C408.45487793 146.51014648 408.90975586 147.02029297 409.37841797 147.54589844 C440.97037867 183.21237946 464.08597731 226.28951086 480 271 C480.35255859 271.98210449 480.70511719 272.96420898 481.06835938 273.97607422 C514.63500764 368.33110379 512 464.38676432 512 564 C421.91 564 331.82 564 239 564 C239 555.42 239 546.84 239 538 C205.34 538 171.68 538 137 538 C136.96261719 529.60175781 136.92523437 521.20351563 136.88671875 512.55078125 C136.85250172 506.48178321 136.81648749 500.41281616 136.77792263 494.34384632 C136.72846692 486.52408918 136.68295535 478.70438258 136.65356445 470.88452148 C136.63024389 464.68344258 136.59648564 458.48251327 136.55129844 452.28155392 C136.52781271 449.01263238 136.51036028 445.74387924 136.50238609 442.47487831 C136.36533078 391.36080403 129.79892424 335.95723306 92.1875 298 C90.48315849 296.30795533 88.75663912 294.6376856 87 293 C86.36707031 292.40058594 85.73414063 291.80117188 85.08203125 291.18359375 C75.88797854 285.9569559 55.3382076 292.99576702 45.75634766 295.61279297 C29.27126534 300.48432447 13.73655735 308.42529728 1 320 C-0.01513672 320.804375 -0.01513672 320.804375 -1.05078125 321.625 C-31.53169508 346.05859826 -41.41312865 391.06966664 -45.6875 427.65625 C-54.11520662 508.28084798 -33.14142019 590.77987429 12 658 C12.47566406 658.71220703 12.95132812 659.42441406 13.44140625 660.15820312 C19.35417762 668.9790269 25.51363955 677.58971908 32 686 C32.42249023 686.54865723 32.84498047 687.09731445 33.28027344 687.66259766 C38.70276239 694.68727564 44.25506362 701.57932655 50.02392578 708.32275391 C52.83094848 711.60442769 55.55803507 714.934941 58.25 718.3125 C62.74372285 723.84448372 67.59859277 729.00694839 72.50878906 734.16723633 C76.25829681 738.11097533 79.8845295 742.13327299 83.45068359 746.2434082 C85.22110117 748.2506812 87.0747819 750.14116873 89 752 C91.44829715 754.36387311 93.70570654 756.81424388 95.91015625 759.40234375 C100.87546163 765.11648016 106.26479711 770.41404725 111.62426758 775.75463867 C113.43360933 777.55862085 115.23754319 779.36788665 117.04101562 781.17773438 C122.3307691 786.47022031 127.62052348 791.68373661 133.32055664 796.53881836 C136.53148646 799.33245333 139.45546746 802.41303525 142.421875 805.4609375 C145.78493604 808.87824146 149.30396132 812.04727167 152.9296875 815.18359375 C157.05848377 818.80602822 161.01297301 822.61775764 165 826.39453125 C168.98378769 830.15267472 173.033539 833.81134207 177.16943359 837.40136719 C179.59084383 839.51598364 181.95120451 841.69364771 184.3125 843.875 C187.89261212 847.14529473 191.52916237 850.28026617 195.3125 853.3125 C201.0548334 857.94421018 206.400643 862.94823463 211.77734375 867.9921875 C214.82061941 870.8447641 217.92944134 873.6092621 221.0859375 876.3359375 C224.24170582 879.07952384 227.33729658 881.88967561 230.44140625 884.69140625 C232.09252333 886.1811928 233.74600144 887.66836877 235.40234375 889.15234375 C241.69494339 894.79222641 247.92282634 900.49957675 254.1144104 906.24984741 C255.32491798 907.37340737 256.53640255 908.49591616 257.74911499 909.61709595 C270.41459153 921.34072052 282.64441293 933.48835994 294.83300781 945.70263672 C297.5983602 948.47374962 300.36826915 951.24025813 303.13946724 954.00552368 C305.3084491 956.17087376 307.47502166 958.33862197 309.64089584 960.50708008 C310.66148759 961.52833054 311.6827993 962.5488621 312.70489883 963.56860352 C318.35690939 969.2104013 323.80469449 974.93639424 329 981 C330.22954633 982.34259467 331.46656465 983.67849462 332.71875 985 C333.34136719 985.66 333.96398438 986.32 334.60546875 987 C335.23066406 987.66 335.85585937 988.32 336.5 989 C341.45659254 994.23252656 346.29212198 999.54225606 351 1005 C351.49371094 1005.57153809 351.98742188 1006.14307617 352.49609375 1006.73193359 C353.91711738 1008.38119698 355.33441747 1010.03356476 356.75 1011.6875 C357.51425293 1012.58033691 357.51425293 1012.58033691 358.29394531 1013.49121094 C359.86366624 1015.32659186 361.43210702 1017.16305738 363 1019 C363.49113281 1019.57508301 363.98226562 1020.15016602 364.48828125 1020.74267578 C374.00532998 1031.898273 383.12061009 1043.3319366 392 1055 C392.46954102 1055.61649414 392.93908203 1056.23298828 393.42285156 1056.86816406 C411.31883628 1080.41425232 427.78997013 1104.84033711 442.54931641 1130.48193359 C443.46800145 1132.07656798 444.3915592 1133.66841339 445.32177734 1135.25634766 C486.17219735 1204.99669433 506.60995108 1287.29394669 498.0546875 1618.63037109 C483.05008182 1674.84427235 459.17697778 1728.84687062 422 1774 C421.54915039 1774.54849609 421.09830078 1775.09699219 420.63378906 1775.66210938 C407.93009148 1791.04359133 394.40530313 1806.26598681 379 1819 C378.46600586 1819.44778809 377.93201172 1819.89557617 377.38183594 1820.35693359 C310.14718055 1876.64933748 226.96654537 1902.14910578 132 1911 C130.73591309 1911.1045752 129.47182617 1911.20915039 128.16943359 1911.31689453 C113.43055875 1912.3557334 98.6433215 1912.24584615 83.875 1912.25 C82.79475178 1912.25066278 82.79475178 1912.25066278 81.69268036 1912.25133896 C58.0177827 1912.25894248 34.53901203 1911.74501177 11 1909 C10.27707764 1908.9175 9.55415527 1908.835 8.80932617 1908.75 C-26.80332828 1904.65794822 -64.03328692 1898.18477667 -97.296875 1884.4140625 C-104.22065386 1881.70346564 -111.20211882 1880.50349963 -118.50830078 1879.40264893 C-122.38144695 1878.81494898 -126.2452609 1878.17139634 -130.109375 1877.52734375 C-130.8765686 1877.39984741 -131.64376221 1877.27235107 -132.4342041 1877.14099121 C-195.6870465 1866.47269587 -259.42533125 1839.2154907 -307.52587891 1796.31103516 C-308.811978 1795.16722063 -310.11370488 1794.04102633 -311.41796875 1792.91796875 C-324.26451808 1781.70764085 -336.58168349 1769.50449706 -347 1756 C-347.87382361 1754.94607277 -348.75170529 1753.89550185 -349.6328125 1752.84765625 C-409.74848852 1680.75784405 -434.0620749 1584.80351123 -441.75 1493.0625 C-441.83888489 1492.00544357 -441.83888489 1492.00544357 -441.92956543 1490.92703247 C-446.60714419 1434.16756902 -444 1376.61724629 -444 1320 C-353.91 1320 -263.82 1320 -171 1320 C-171 1328.58 -171 1337.16 -171 1346 C-137.34 1346 -103.68 1346 -69 1346 C-68.95101563 1356.03277344 -68.90203125 1366.06554688 -68.8515625 1376.40234375 C-68.81612561 1382.80534656 -68.78021285 1389.20834102 -68.7421875 1395.61132812 C-68.68208276 1405.7468057 -68.62377393 1415.88226788 -68.578125 1426.01782227 C-68.54485003 1433.40395594 -68.50483312 1440.79001948 -68.45720994 1448.17607504 C-68.43229141 1452.0752898 -68.4104151 1455.97446018 -68.39665604 1459.87373161 C-68.19742923 1514.14374792 -63.08202963 1570.74226859 -24.46875 1612.38427734 C-23.12483787 1613.86267005 -21.85478884 1615.40734553 -20.59375 1616.95703125 C-17.32451134 1620.4120221 -14.53812255 1622.71027947 -9.67724609 1623.26513672 C21.73964582 1623.78963557 54.23352519 1610.99603585 78 1591 C78.58910156 1590.5565625 79.17820312 1590.113125 79.78515625 1589.65625 C109.96826717 1566.25185194 119.37806808 1521.41889565 124 1486 C136.65233865 1383.6450371 108.31768516 1279.20400329 43.625 1194.30859375 C32.81445122 1180.63324954 21.75449374 1167.1441135 10.02734375 1154.2421875 C8.26032801 1152.28791576 6.53086471 1150.30940263 4.8125 1148.3125 C-3.12845572 1139.20538994 -11.4733578 1130.43227516 -20.078125 1121.953125 C-21.87020211 1120.13190842 -23.53473993 1118.25981136 -25.1875 1116.3125 C-32.35949143 1107.96751932 -40.34280767 1100.13166782 -48.74609375 1093.03515625 C-52.78326391 1089.3898085 -56.563404 1085.47500949 -60.37084961 1081.59204102 C-64.09614587 1077.81555823 -67.93422945 1074.25860938 -71.95117188 1070.79492188 C-76.30299147 1066.98241262 -80.45234702 1062.94694874 -84.64453125 1058.9609375 C-88.75990296 1055.0637482 -92.93603951 1051.26295733 -97.21826172 1047.54980469 C-99.44865042 1045.60975159 -101.63078013 1043.61949697 -103.8125 1041.625 C-107.35160002 1038.42347567 -110.97103106 1035.36853937 -114.6875 1032.375 C-118.46752288 1029.31700396 -121.95748183 1026.16241214 -125.3359375 1022.671875 C-127.72664654 1020.26994197 -130.28402439 1018.08145686 -132.84765625 1015.8671875 C-139.99637738 1009.66557462 -146.94694523 1003.23602525 -153.9140625 996.83203125 C-155.98665299 994.92743522 -158.06509735 993.02954887 -160.1484375 991.13671875 C-165.22899422 986.51412771 -170.21737274 981.83783818 -175.03187561 976.9356842 C-176.79577137 975.20086237 -178.60146696 973.59774128 -180.48999023 972.00170898 C-186.22598422 967.01287453 -191.54361608 961.60053728 -196.91015625 956.22265625 C-198.04766033 955.08582754 -199.18531267 953.94914717 -200.32310486 952.81260681 C-202.69562686 950.44155079 -205.06635241 948.06871727 -207.43579102 945.69458008 C-210.45365912 942.67101539 -213.47599576 939.65196367 -216.49970341 936.63424015 C-218.84627732 934.29130167 -221.19043735 931.9459596 -223.53390312 929.59991264 C-224.64659957 928.48655516 -225.7600225 927.37392319 -226.87422371 926.26207161 C-232.79818744 920.34786492 -238.55728406 914.36595541 -244 908 C-245.30168755 906.5837356 -246.61182872 905.17509037 -247.9375 903.78125 C-248.60523438 903.07613281 -249.27296875 902.37101563 -249.9609375 901.64453125 C-250.63382813 900.93683594 -251.30671875 900.22914063 -252 899.5 C-257.12949517 894.10518611 -262.14257924 888.64153271 -267 883 C-267.48774902 882.43442383 -267.97549805 881.86884766 -268.47802734 881.28613281 C-269.88406102 879.65152729 -271.28652382 878.01394161 -272.6875 876.375 C-275.80023641 872.7337043 -278.91435455 869.09411282 -282.0546875 865.4765625 C-287.46210049 859.23508322 -292.72054951 852.91549642 -297.78320312 846.390625 C-300.76121554 842.55627425 -303.80346684 838.78355331 -306.88891602 835.03515625 C-312.79918249 827.84799632 -318.34129079 820.5061531 -323.66943359 812.88085938 C-325.10832053 810.84688049 -326.57596282 808.83619295 -328.05078125 806.828125 C-383.88599037 730.73300122 -420.12453403 642.30283232 -431.8692627 350.22198486 C-420.95664056 279.40852061 -398.45286713 208.88458163 -355 151 C-354.57025879 150.4215332 -354.14051758 149.84306641 -353.69775391 149.24707031 C-338.35903256 128.65019996 -320.82664545 108.41056802 -301 92 C-300.47664063 91.5575293 -299.95328125 91.11505859 -299.4140625 90.65917969 C-232.81553568 34.42123155 -148.42734231 9.80524267 -63 2 C-61.92371338 1.89993652 -61.92371338 1.89993652 -60.82568359 1.79785156 C-40.71512135 -0.00087033 -20.18283106 -0.39801486 0 0 Z " fill="#000000" transform="translate(1458,17)"/>
<path d="M0 0 C1.20055023 -0.01065742 1.20055023 -0.01065742 2.425354 -0.02153015 C37.56234797 -0.26258796 71.12403259 3.81123013 100.390625 25.203125 C100.390625 25.533125 100.390625 25.863125 100.390625 26.203125 C99.68156006 26.30334961 98.97249512 26.40357422 98.24194336 26.50683594 C69.01201909 30.68694023 40.95767458 36.97189691 18.390625 57.203125 C17.71128906 57.74066406 17.03195312 58.27820313 16.33203125 58.83203125 C-14.13612033 83.2923783 -24.02070085 128.25736054 -28.296875 164.859375 C-36.72458162 245.48397298 -15.75079519 327.98299929 29.390625 395.203125 C29.86628906 395.91533203 30.34195312 396.62753906 30.83203125 397.36132812 C36.74480262 406.1821519 42.90426455 414.79284408 49.390625 423.203125 C50.02436035 424.02611084 50.02436035 424.02611084 50.67089844 424.86572266 C56.09338739 431.89040064 61.64568862 438.78245155 67.41455078 445.52587891 C70.22157348 448.80755269 72.94866007 452.138066 75.640625 455.515625 C80.13434785 461.04760872 84.98921777 466.21007339 89.89941406 471.37036133 C93.64892181 475.31410033 97.2751545 479.33639799 100.84130859 483.4465332 C102.61172617 485.4538062 104.4654069 487.34429373 106.390625 489.203125 C108.83892215 491.56699811 111.09633154 494.01736888 113.30078125 496.60546875 C118.26608663 502.31960516 123.65542211 507.61717225 129.01489258 512.95776367 C130.82423433 514.76174585 132.62816819 516.57101165 134.43164062 518.38085938 C139.7213941 523.67334531 145.01114848 528.88686161 150.71118164 533.74194336 C153.92211146 536.53557833 156.84609246 539.61616025 159.8125 542.6640625 C163.17556104 546.08136646 166.69458632 549.25039667 170.3203125 552.38671875 C174.44910877 556.00915322 178.40359801 559.82088264 182.390625 563.59765625 C186.37441269 567.35579972 190.424164 571.01446707 194.56005859 574.60449219 C196.98146883 576.71910864 199.34182951 578.89677271 201.703125 581.078125 C205.28323712 584.34841973 208.91978737 587.48339117 212.703125 590.515625 C218.4454584 595.14733518 223.791268 600.15135963 229.16796875 605.1953125 C232.21124441 608.0478891 235.32006634 610.8123871 238.4765625 613.5390625 C241.63233082 616.28264884 244.72792158 619.09280061 247.83203125 621.89453125 C249.48314833 623.3843178 251.13662644 624.87149377 252.79296875 626.35546875 C259.08556839 631.99535141 265.31345134 637.70270175 271.5050354 643.45297241 C272.71554298 644.57653237 273.92702755 645.69904116 275.13973999 646.82022095 C287.80521653 658.54384552 300.03503793 670.69148494 312.22363281 682.90576172 C314.9889852 685.67687462 317.75889415 688.44338313 320.53009224 691.20864868 C322.6990741 693.37399876 324.86564666 695.54174697 327.03152084 697.71020508 C328.05211259 698.73145554 329.0734243 699.7519871 330.09552383 700.77172852 C335.74753439 706.4135263 341.19531949 712.13951924 346.390625 718.203125 C347.62017133 719.54571967 348.85718965 720.88161962 350.109375 722.203125 C350.73199219 722.863125 351.35460938 723.523125 351.99609375 724.203125 C352.62128906 724.863125 353.24648437 725.523125 353.890625 726.203125 C358.84721754 731.43565156 363.68274698 736.74538106 368.390625 742.203125 C369.13119141 743.06043213 369.13119141 743.06043213 369.88671875 743.93505859 C371.30774238 745.58432198 372.72504247 747.23668976 374.140625 748.890625 C374.65012695 749.48584961 375.15962891 750.08107422 375.68457031 750.69433594 C377.25429124 752.52971686 378.82273202 754.36618238 380.390625 756.203125 C380.88175781 756.77820801 381.37289062 757.35329102 381.87890625 757.94580078 C391.39595498 769.101398 400.51123509 780.5350616 409.390625 792.203125 C409.86016602 792.81961914 410.32970703 793.43611328 410.81347656 794.07128906 C428.70946128 817.61737732 445.18059513 842.04346211 459.93994141 867.68505859 C460.85862645 869.27969298 461.7821842 870.87153839 462.71240234 872.45947266 C503.56282235 942.19981933 524.00057608 1024.49707169 515.4453125 1355.83349609 C500.44070682 1412.04739735 476.56760278 1466.04999562 439.390625 1511.203125 C438.93977539 1511.75162109 438.48892578 1512.30011719 438.02441406 1512.86523438 C425.32071648 1528.24671633 411.79592813 1543.46911181 396.390625 1556.203125 C395.85663086 1556.65091309 395.32263672 1557.09870117 394.77246094 1557.56005859 C327.53780555 1613.85246248 244.35717037 1639.35223078 149.390625 1648.203125 C147.49449463 1648.35998779 147.49449463 1648.35998779 145.56005859 1648.52001953 C130.82118375 1649.5588584 116.0339465 1649.44897115 101.265625 1649.453125 C100.18537678 1649.45378778 100.18537678 1649.45378778 99.08330536 1649.45446396 C75.4084077 1649.46206748 51.92963703 1648.94813677 28.390625 1646.203125 C27.30624146 1646.079375 27.30624146 1646.079375 26.19995117 1645.953125 C-12.21200767 1641.53942075 -50.60898738 1633.51943743 -86.609375 1619.203125 C-83.23908938 1618.11958835 -80.61433973 1618.27512404 -77.12109375 1618.7265625 C-75.46883789 1618.92765625 -75.46883789 1618.92765625 -73.78320312 1619.1328125 C-71.53299295 1619.4202343 -69.28297733 1619.70918538 -67.03320312 1620 C-45.12684329 1622.6583562 -22.95816382 1622.48270679 -0.921875 1622.515625 C-0.20259827 1622.51692287 0.51667847 1622.51822075 1.25775146 1622.51955795 C26.01702117 1622.55324398 50.46985528 1621.60377199 75.05810547 1618.49737549 C77.35168461 1618.20803738 79.64633259 1617.92905896 81.94140625 1617.65185547 C109.46719486 1614.28104236 137.70210324 1609.39018577 163.88964844 1600.08837891 C166.87367627 1599.03214258 169.87058982 1598.01611108 172.8671875 1596.99609375 C216.6117133 1581.92702069 257.51459387 1560.87424457 292.390625 1530.203125 C293.12410156 1529.56890625 293.85757812 1528.9346875 294.61328125 1528.28125 C296.55104371 1526.60159904 298.47291661 1524.90561962 300.390625 1523.203125 C301.16792969 1522.51863281 301.94523437 1521.83414062 302.74609375 1521.12890625 C311.52575285 1513.32930212 319.79011285 1505.15693745 327.390625 1496.203125 C328.18855469 1495.29433594 328.98648437 1494.38554688 329.80859375 1493.44921875 C337.62848992 1484.47950715 344.58477609 1474.95723015 351.390625 1465.203125 C351.84324707 1464.55585449 352.29586914 1463.90858398 352.76220703 1463.24169922 C359.92843121 1452.92548639 366.299056 1442.18329738 372.390625 1431.203125 C372.87289551 1430.33719727 373.35516602 1429.47126953 373.85205078 1428.57910156 C386.03798062 1406.50692907 395.13904179 1383.36414335 403.328125 1359.578125 C403.59752899 1358.79968231 403.86693298 1358.02123962 404.14450073 1357.21920776 C408.1190998 1345.67942389 411.44824728 1334.04679971 414.390625 1322.203125 C414.75933716 1320.73020996 414.75933716 1320.73020996 415.13549805 1319.22753906 C422.11827146 1290.4657809 426.7427629 1260.65231914 429.05810547 1231.15551758 C429.3022324 1228.25377683 429.58415936 1225.3692628 429.89892578 1222.4753418 C431.80617754 1203.9722528 431.69694617 1185.46785408 431.65136719 1166.8894043 C431.64004838 1162.23090614 431.6467097 1157.57263838 431.65823555 1152.91414833 C431.72080505 1123.19510892 430.88120688 1093.70712469 427.015625 1064.203125 C426.79253224 1062.44998599 426.56971893 1060.69681139 426.34716797 1058.94360352 C425.7170102 1054.02705833 425.06054896 1049.11439556 424.390625 1044.203125 C424.13925781 1042.35436768 424.13925781 1042.35436768 423.8828125 1040.46826172 C412.02578973 955.5724811 380.13933619 872.66192213 331.390625 802.203125 C330.91061035 801.50848145 330.4305957 800.81383789 329.93603516 800.09814453 C326.46849043 795.09872485 322.94648307 790.14005782 319.390625 785.203125 C318.83616699 784.43323242 318.28170898 783.66333984 317.71044922 782.87011719 C310.57869798 773.00281699 303.22928658 763.37774483 295.484375 753.984375 C292.48463056 750.34129384 289.59090788 746.62257629 286.703125 742.890625 C282.62174347 737.63840955 278.29481676 732.70017676 273.765625 727.82421875 C271.49000471 725.31280228 269.37250189 722.7316726 267.265625 720.078125 C262.55532294 714.23230369 257.42065056 708.81955135 252.23779297 703.39208984 C248.35954375 699.32638394 244.60239198 695.18796527 240.92236328 690.94213867 C239.15875364 688.93987672 237.30988189 687.05620062 235.390625 685.203125 C232.8857965 682.78466989 230.57558558 680.27083715 228.31225586 677.62915039 C224.2168416 672.93693926 219.86519308 668.53361188 215.45703125 664.13671875 C214.62026352 663.29899429 213.78349579 662.46126984 212.92137146 661.59815979 C211.16194396 659.83805565 209.40126847 658.07919823 207.6394043 656.3215332 C204.96093089 653.64841528 202.28783627 650.97000249 199.61523438 648.29101562 C197.89615385 646.57259597 196.17676311 644.85448658 194.45703125 643.13671875 C193.66720352 642.34486679 192.87737579 641.55301483 192.06361389 640.73716736 C187.8640665 636.55509285 183.58817649 632.53022594 179.08433533 628.676651 C175.90252975 625.90848387 173.0179371 622.84739148 170.078125 619.828125 C167.30557772 617.12005556 164.42352465 614.59216044 161.49609375 612.0546875 C157.35897352 608.41647787 153.3897811 604.59685685 149.390625 600.80859375 C145.39628304 597.04049382 141.33682778 593.37007398 137.18994141 589.77050781 C134.95475087 587.82343546 132.76592497 585.82818031 130.578125 583.828125 C127.17978948 580.75565727 123.71471977 577.81869878 120.140625 574.953125 C114.37828165 570.2942091 109.00570494 565.26984784 103.60546875 560.203125 C100.61288167 557.39795246 97.5510194 554.68698454 94.4453125 552.0078125 C91.18178537 549.14136852 88.00001708 546.18560983 84.80541992 543.24291992 C82.09591699 540.75171211 79.36793435 538.29144132 76.578125 535.890625 C71.46318941 531.45064998 66.54919284 526.79232105 61.61181641 522.15722656 C59.01436798 519.72091522 56.41061928 517.29188096 53.79711914 514.87280273 C43.75658641 505.55704338 34.00481779 495.97238915 24.33276367 486.27563477 C21.80307196 483.74051824 19.26798967 481.21087863 16.73242188 478.68164062 C15.09603298 477.04459183 13.45995383 475.40723334 11.82421875 473.76953125 C11.07933701 473.02667374 10.33445526 472.28381622 9.56700134 471.51844788 C5.51445165 467.44787111 1.63571571 463.28349947 -2.11509705 458.93321228 C-3.80529529 456.97628688 -5.54967237 455.08003143 -7.328125 453.203125 C-7.95074219 452.543125 -8.57335938 451.883125 -9.21484375 451.203125 C-9.84003906 450.543125 -10.46523437 449.883125 -11.109375 449.203125 C-16.06583631 443.97073698 -20.90441665 438.66327049 -25.609375 433.203125 C-26.06151367 432.67847656 -26.51365234 432.15382813 -26.97949219 431.61328125 C-50.34598984 404.36140309 -72.03046902 375.7347369 -89.46142578 344.26855469 C-90.50269279 342.3950713 -91.56607109 340.53646762 -92.63671875 338.6796875 C-99.70621785 326.04422286 -105.09163775 312.56817285 -110.609375 299.203125 C-111.10896729 298.00139648 -111.10896729 298.00139648 -111.61865234 296.77539062 C-119.15218571 278.4653834 -123.86663665 259.04406147 -127.19628906 239.56982422 C-127.58573637 237.33855816 -128.00814695 235.11687517 -128.4453125 232.89453125 C-132.18581642 213.60932461 -132.99345455 194.17935217 -132.921875 174.578125 C-132.92005219 173.53407501 -132.91822937 172.49002502 -132.91635132 171.41433716 C-132.77292553 122.43793416 -124.45905161 70.8483066 -88.8671875 34.39453125 C-65.57244093 11.72672488 -32.23328328 0.18978362 0 0 Z " fill="#0CA1FE" transform="translate(1440.609375,279.796875)"/>
<path d="M0 0 C0.85634033 0.00149048 1.71268066 0.00298096 2.5949707 0.0045166 C16.25229181 0.04718379 29.63107895 0.6355371 43.0625 3.3125 C44.08609619 3.51335205 44.08609619 3.51335205 45.13037109 3.71826172 C62.01574041 7.21749048 78.96009877 14.38935052 93.0625 24.3125 C93.3925 24.9725 93.7225 25.6325 94.0625 26.3125 C93.28350342 26.40748779 92.50450684 26.50247559 91.7019043 26.6003418 C52.7886598 31.42903441 17.10249631 41.28650992 -8.5 73.45703125 C-35.85354905 109.38979292 -43.12333751 156.10186456 -43.06613445 200.12865353 C-43.06748273 201.92698417 -43.06926754 203.72531453 -43.07144669 205.52364436 C-43.076163 210.46097985 -43.07467946 215.39829683 -43.07216892 220.33563322 C-43.07053306 225.7089554 -43.07467899 231.08227367 -43.07807809 236.4555946 C-43.08322902 245.87190602 -43.08464982 255.2882123 -43.08362198 264.70452499 C-43.08209723 278.70734875 -43.08625844 292.71016681 -43.0914966 306.71298946 C-43.10117 333.17819242 -43.10398147 359.64339335 -43.10455366 386.10859787 C-43.10461841 389.02680238 -43.10468635 391.94500688 -43.10475707 394.86321139 C-43.10478258 395.94948993 -43.10478258 395.94948993 -43.1048086 397.05771348 C-43.10521728 413.11472609 -43.10740793 429.17173831 -43.10991292 445.22875071 C-43.1109413 451.84319641 -43.11193134 458.45764212 -43.11292917 465.07208782 C-43.11303975 465.80295971 -43.11315034 466.53383161 -43.11326428 467.28685113 C-43.11958755 509.16424089 -43.12371349 551.04163039 -43.12325573 592.91902065 C-43.12323995 594.48587065 -43.12322422 596.05272064 -43.12320852 597.61957063 C-43.12313514 604.69355342 -43.12304697 611.76753621 -43.12295464 618.841519 C-43.12291351 621.99589696 -43.12287337 625.15027492 -43.12283332 628.30465287 C-43.12281293 629.8834753 -43.12279191 631.46229772 -43.12277026 633.04112015 C-43.12209018 682.95376737 -43.12940496 732.8664075 -43.14331055 782.77905273 C-43.1468117 795.35286424 -43.15028121 807.92667576 -43.15357494 820.50048733 C-43.15387925 821.66188664 -43.15387925 821.66188664 -43.15418971 822.84674856 C-43.16040711 846.71985666 -43.16417074 870.59296417 -43.16543293 894.46607304 C-43.16547288 895.2158737 -43.16551283 895.96567437 -43.16555399 896.73819626 C-43.16640737 913.20019924 -43.16666843 929.66220218 -43.16638362 946.12420517 C-43.16628714 952.01503094 -43.16623509 957.90585672 -43.16620489 963.7966825 C-43.16619697 965.26211758 -43.16618677 966.72755267 -43.16617426 968.19298775 C-43.16599812 991.5188082 -43.17168852 1014.84462255 -43.18032808 1038.17044125 C-43.18923 1062.32743406 -43.19079192 1086.48441648 -43.18401595 1110.64141022 C-43.180322 1124.56099222 -43.18214808 1138.48054758 -43.19195829 1152.40012675 C-43.19796151 1161.70490783 -43.196659 1171.00966964 -43.18948779 1180.31444984 C-43.1856092 1185.61149574 -43.18482228 1190.90849012 -43.19294515 1196.20553236 C-43.20028801 1201.03641648 -43.19821315 1205.86720674 -43.18902128 1210.69808686 C-43.18731771 1212.42326263 -43.18886929 1214.14844599 -43.19432249 1215.87361399 C-43.24261324 1232.26531072 -42.09327641 1248.66171716 -39.1875 1264.8125 C-39.01976074 1265.75480469 -38.85202148 1266.69710938 -38.67919922 1267.66796875 C-33.73490646 1294.14357393 -24.28906512 1320.39388839 -6.9375 1341.3125 C-6.21820313 1342.18390625 -5.49890625 1343.0553125 -4.7578125 1343.953125 C0.01572262 1349.49110524 5.21201197 1354.10135091 10.97265625 1358.59765625 C11.66230469 1359.16355469 12.35195313 1359.72945312 13.0625 1360.3125 C13.0625 1360.6425 13.0625 1360.9725 13.0625 1361.3125 C-6.0024656 1361.76671892 -24.27221434 1361.81123605 -42.9375 1357.3125 C-43.69869141 1357.13589844 -44.45988281 1356.95929688 -45.24414062 1356.77734375 C-66.99478208 1351.58488292 -85.82916069 1340.69624273 -101.9375 1325.3125 C-102.60007812 1324.7246875 -103.26265625 1324.136875 -103.9453125 1323.53125 C-136.95483442 1293.06092208 -144.71625148 1240.53930902 -146.9375 1198.3125 C-147.46349113 1184.98825275 -147.35107732 1171.64090143 -147.32290266 1158.30903396 C-147.3151676 1153.03541546 -147.32512079 1147.76182167 -147.33263266 1142.48820686 C-147.34338227 1133.28067746 -147.34319226 1124.07320098 -147.33549118 1114.86566925 C-147.32407028 1101.17296839 -147.32998278 1087.48031158 -147.3391161 1073.78761095 C-147.35394924 1050.73663398 -147.35457433 1027.68568313 -147.34638596 1004.63470459 C-147.33828186 981.80938436 -147.33512916 958.98407395 -147.3389473 936.15875244 C-147.33917974 934.72093579 -147.33941121 933.28311913 -147.33964171 931.84530248 C-147.34057323 926.06625973 -147.34152924 920.28721699 -147.342521 914.50817425 C-147.34527104 898.35673742 -147.34698356 882.20530056 -147.34787941 866.05386353 C-147.34792035 865.31857162 -147.34796128 864.58327971 -147.34800346 863.82570623 C-147.34922997 840.42159379 -147.34585749 817.01748432 -147.33933067 793.6133728 C-147.33901455 792.47595342 -147.33901455 792.47595342 -147.33869205 791.31555587 C-147.33525784 779.00421133 -147.33159916 766.69286686 -147.32792152 754.38152239 C-147.31335427 705.56358479 -147.31403044 656.74567187 -147.32861328 607.92773438 C-147.33227732 595.62236534 -147.33591067 583.3169963 -147.33933067 571.0116272 C-147.33954202 570.25377959 -147.33975336 569.49593199 -147.33997111 568.7151193 C-147.3464467 545.3337913 -147.34918116 521.95246535 -147.34787941 498.57113647 C-147.34783866 497.8363952 -147.3477979 497.10165392 -147.34775592 496.34464776 C-147.34681818 480.21068391 -147.34491668 464.07672028 -147.3421479 447.94275665 C-147.34116062 442.16910557 -147.34022136 436.39545447 -147.33929577 430.62180338 C-147.3390636 429.18567545 -147.33882741 427.74954753 -147.33858718 426.3134196 C-147.33478149 403.50038008 -147.33903377 380.68735133 -147.34713761 357.87431323 C-147.35544029 334.24315561 -147.35230621 310.61202906 -147.33654372 286.98087358 C-147.32777052 273.38161734 -147.32710797 259.78242 -147.33848225 246.18316535 C-147.34525553 237.076087 -147.34094028 227.96905545 -147.32796794 218.86198398 C-147.32089655 213.68889224 -147.31825344 208.51591669 -147.32918589 203.34282899 C-147.44246317 145.43938801 -145.15612843 80.95365692 -101.9375 37.3125 C-101.26203125 36.57644531 -100.5865625 35.84039062 -99.890625 35.08203125 C-74.91601199 8.34638784 -35.09494921 -0.15093508 0 0 Z " fill="#0CA1FD" transform="translate(453.9375,279.6875)"/>
<path d="M0 0 C33.99 0 67.98 0 103 0 C103.03387026 57.9970527 103.06613015 115.99410526 103.08468628 173.99116516 C103.08496239 174.85194118 103.08523851 175.7127172 103.08552299 176.59957734 C103.09151124 195.3144369 103.09705126 214.02929657 103.10213066 232.7441564 C103.10462495 241.92424557 103.10721811 251.1043347 103.10986328 260.28442383 C103.1101248 261.19786793 103.11038632 262.11131203 103.11065576 263.05243625 C103.11915183 292.56651309 103.13415433 322.08058218 103.15259444 351.59465434 C103.17153697 381.96861144 103.1837887 412.34256427 103.18782998 442.71652719 C103.18840614 447.02388142 103.18905741 451.33123564 103.18975449 455.63858986 C103.18988933 456.48619337 103.19002418 457.33379688 103.19016311 458.20708534 C103.19251048 471.75517144 103.2017426 485.30324417 103.21366407 498.85132485 C103.22554921 512.52983912 103.22990871 526.20834038 103.22700275 539.88685962 C103.22563184 547.27454576 103.22732155 554.66219637 103.23841095 562.04987526 C103.2758826 588.07387893 103.2718309 614.07550404 102.09909058 640.07820129 C102.059399 640.96567595 102.01970742 641.8531506 101.97881307 642.76751842 C97.82156897 732.62539784 77.65677448 827.46546179 25 902 C24.2043527 903.14447954 23.40878457 904.28901412 22.61328125 905.43359375 C17.38860829 912.89784461 11.87652625 920.03197965 6 927 C5.07897478 928.10769699 4.15842246 929.21578732 3.23828125 930.32421875 C-1.1193202 935.55066027 -5.49304143 940.67873608 -10.40234375 945.40234375 C-12.14771294 947.14771294 -13.72128426 948.98843099 -15.3125 950.875 C-18.73252345 954.8370361 -22.4935801 958.27850901 -26.421875 961.73046875 C-28.0562583 963.16922132 -29.6733442 964.62806761 -31.265625 966.11328125 C-50.96206679 984.43633169 -74.19228498 999.61068356 -98 1012 C-98.81017578 1012.43086914 -99.62035156 1012.86173828 -100.45507812 1013.30566406 C-149.80287435 1039.48521576 -204.59737063 1052.40605305 -259.8125 1058.25 C-260.59870728 1058.33326538 -261.38491455 1058.41653076 -262.19494629 1058.50231934 C-282.14425839 1060.58510668 -301.92874727 1061.18822819 -321.97827148 1061.18530273 C-324.76121621 1061.18522217 -327.54399385 1061.19206676 -330.3269043 1061.20581055 C-355.32951859 1061.32714644 -380.24473289 1060.49607704 -405.0625 1057.1875 C-405.70912598 1057.10318726 -406.35575195 1057.01887451 -407.02197266 1056.93200684 C-444.36044461 1052.05464085 -479.53287998 1043.4176129 -515 1031 C-515 1030.67 -515 1030.34 -515 1030 C-506.88979801 1029.77251872 -499.00185324 1030.84704975 -490.96484375 1031.84570312 C-469.48346595 1034.38531238 -447.8503278 1034.28265168 -426.25 1034.3125 C-425.47576817 1034.31379787 -424.70153633 1034.31509575 -423.90384293 1034.31643295 C-399.78527195 1034.34700168 -376.01121834 1033.70324367 -352.09832764 1030.29425049 C-349.98533841 1029.99794399 -347.87068284 1029.72040503 -345.75439453 1029.44873047 C-311.09352847 1024.98349326 -277.83063734 1016.98239331 -245 1005 C-243.81809082 1004.56929199 -242.63618164 1004.13858398 -241.41845703 1003.69482422 C-211.17055199 992.49140225 -182.92445344 977.15458586 -157 958 C-156.1330249 957.36263916 -156.1330249 957.36263916 -155.24853516 956.71240234 C-151.43138968 953.89064494 -147.6912941 950.98435535 -144 948 C-143.45794922 947.56236328 -142.91589844 947.12472656 -142.35742188 946.67382812 C-133.4672668 939.41130283 -125.25798645 931.46313842 -117.125 923.375 C-116.63872131 922.89398834 -116.15244263 922.41297668 -115.65142822 921.91738892 C-108.97038168 915.29240137 -102.85375309 908.36735393 -97 901 C-95.99952422 899.79142282 -94.99608697 898.58528421 -93.98828125 897.3828125 C-59.4766413 855.62284421 -34.70593908 802.82640743 -21.61767578 750.41308594 C-21.0436702 748.17060721 -20.42340687 745.94918542 -19.77734375 743.7265625 C-10.73626 712.17895112 -6.15737179 678.80033445 -3.3125 646.1875 C-3.25147095 645.49485046 -3.19044189 644.80220093 -3.12756348 644.08856201 C-1.2862384 622.82715018 -0.85011135 601.55974224 -0.84178162 580.2280426 C-0.8372035 577.70856253 -0.8322017 575.1890832 -0.82681805 572.66960472 C-0.81616192 567.23599436 -0.80843563 561.80239267 -0.80341911 556.36877441 C-0.79594347 548.28945033 -0.78284539 540.21014184 -0.76867336 532.13082706 C-0.74497787 518.53371556 -0.72572591 504.93660126 -0.70907402 491.33947945 C-0.69259 477.89149148 -0.67408953 464.44350874 -0.65294075 450.99552727 C-0.65096434 449.73770956 -0.65096434 449.73770956 -0.648948 448.4544814 C-0.64224521 444.19532018 -0.63550682 439.93615903 -0.62875474 435.67699789 C-0.58108859 405.56925693 -0.537876 375.46151107 -0.49731445 345.35375977 C-0.45791794 316.11840459 -0.41648425 286.88305345 -0.37231445 257.64770508 C-0.37095192 256.7453323 -0.36958939 255.84295952 -0.36818558 254.91324211 C-0.3544993 245.85061295 -0.34077185 236.78798386 -0.32701423 227.72535481 C-0.29899344 209.26644275 -0.27124736 190.80753028 -0.2436676 172.34861755 C-0.2417653 171.07576463 -0.2417653 171.07576463 -0.23982458 169.7771975 C-0.15527784 113.18480485 -0.07735431 56.59240287 0 0 Z " fill="#0CA1FE" transform="translate(878,868)"/>
<path d="M0 0 C75.60528028 11.82696773 148.90716845 36.37680666 207 88 C207.72743408 88.64130859 208.45486816 89.28261719 209.2043457 89.94335938 C215.698413 95.71814099 221.9162033 101.73298644 228.0625 107.875 C228.99126953 108.79152344 229.92003906 109.70804687 230.87695312 110.65234375 C237.0261941 116.78863896 242.61652582 123.18638944 248 130 C249.16145066 131.43620412 250.32290844 132.87240249 251.484375 134.30859375 C264.6477177 150.85232877 275.6778564 168.57629595 286 187 C286.53052979 187.93126709 286.53052979 187.93126709 287.07177734 188.88134766 C309.91199795 229.05477027 323.17766365 274.85923837 332 320 C332.23557617 321.20398438 332.47115234 322.40796875 332.71386719 323.6484375 C342.60408689 375.22995424 344.18442618 427.51882606 344.10128021 479.891922 C344.09546553 484.16435813 344.09531075 488.43678838 344.09460449 492.70922852 C344.08941511 505.09782255 344.07545422 517.48641166 344.0625 529.875 C344.041875 557.63625 344.02125 585.3975 344 614 C253.58 614 163.16 614 70 614 C70 605.42 70 596.84 70 588 C126.43 588 182.86 588 241 588 C240.87998503 552.7567958 240.87998503 552.7567958 240.7421875 517.51367188 C240.68197945 503.12265454 240.62364356 488.73164847 240.578125 474.34057617 C240.54495146 463.85536407 240.50498512 453.3702024 240.45720994 442.8850463 C240.43219402 437.34479624 240.41034269 431.80457854 240.39665604 426.26428795 C240.32331087 397.71582327 239.73702585 369.60550096 235.83984375 341.2734375 C235.23416638 336.80326741 234.67059669 332.32993583 234.12890625 327.8515625 C230.65891751 299.69056166 224.47745447 272.33267738 217 245 C216.78021484 244.19353027 216.56042969 243.38706055 216.33398438 242.55615234 C201.56286863 189.42328154 173.77672389 136.08897272 136.265625 95.4765625 C134.38853839 93.42471266 132.56625363 91.34339046 130.75 89.23828125 C126.91419482 84.84483898 122.87549932 80.68331285 118.75 76.5625 C117.62911987 75.44282837 117.62911987 75.44282837 116.4855957 74.30053711 C111.77327525 69.64007303 107.0110085 65.25222369 101.77075195 61.18823242 C98.94692686 58.9580849 96.21924718 56.63887588 93.484375 54.30078125 C87.31773366 49.11172032 80.79713569 44.54989376 74.0625 40.125 C73.47940063 39.73947968 72.89630127 39.35395935 72.29553223 38.95675659 C49.60475067 23.97472644 25.77688087 10.86664843 0 2 C0 1.34 0 0.68 0 0 Z " fill="#0CA1FE" transform="translate(637,48)"/>
<path d="M0 0 C65.47769356 7.61679292 130.041993 30.25059743 183 70 C183.57556641 70.43135254 184.15113281 70.86270508 184.74414062 71.30712891 C193.12084354 77.63121636 200.90208447 84.426953 208.52880859 91.63037109 C210.66246754 93.61673464 212.86594867 95.5212104 215.0625 97.4375 C221.13942926 102.89493647 226.58385207 108.89765139 232 115 C232.45487793 115.51014648 232.90975586 116.02029297 233.37841797 116.54589844 C264.97037867 152.21237946 288.08597731 195.28951086 304 240 C304.35255859 240.98210449 304.70511719 241.96420898 305.06835938 242.97607422 C338.63500764 337.33110379 336 433.38676432 336 533 C245.91 533 155.82 533 63 533 C63 524.42 63 515.84 63 507 C119.43 507 175.86 507 234 507 C233.814375 479.5275 233.814375 479.5275 233.625 451.5 C233.59100098 445.78751953 233.55700195 440.07503906 233.52197266 434.18945312 C233.27799738 397.05312663 233.27799738 397.05312663 231 360 C230.92257568 359.1123999 230.84515137 358.2247998 230.76538086 357.31030273 C230.32231734 352.36170638 229.78569916 347.43218628 229.1875 342.5 C229.10385193 341.79416779 229.02020386 341.08833557 228.934021 340.3611145 C226.10608572 316.53856932 222.415436 293.02682217 216.65820312 269.71386719 C216.08706802 267.35899411 215.5531076 265.00229329 215.046875 262.6328125 C208.81209216 233.71034764 198.07355942 205.92004094 186 179 C185.65855957 178.22914063 185.31711914 177.45828125 184.96533203 176.6640625 C173.42012834 150.6770931 157.90645408 126.06781312 140 104 C139.2678125 103.07703125 138.535625 102.1540625 137.78125 101.203125 C124.03935786 84.07414677 108.43478446 67.3845141 91 54 C89.70008366 52.95137115 88.40206651 51.90038566 87.10546875 50.84765625 C63.51593566 31.86024311 37.18673354 16.71481526 9.11230469 5.42504883 C8.0659082 5.00247803 7.01951172 4.57990723 5.94140625 4.14453125 C5.01013916 3.77690674 4.07887207 3.40928223 3.11938477 3.03051758 C1 2 1 2 0 0 Z " fill="#0CA1FE" transform="translate(1634,48)"/>
<path d="M0 0 C33.66 0 67.32 0 102 0 C102.04898437 10.03277344 102.09796875 20.06554688 102.1484375 30.40234375 C102.18387439 36.80534656 102.21978715 43.20834102 102.2578125 49.61132812 C102.31791724 59.7468057 102.37622607 69.88226788 102.421875 80.01782227 C102.45514997 87.40395594 102.49516688 94.79001948 102.54279006 102.17607504 C102.56770859 106.0752898 102.5895849 109.97446018 102.60334396 113.87373161 C102.80318754 168.31175853 107.83941441 227.00247531 148 268 C150.87969683 270.63819637 153.91239289 273.05452621 157.015625 275.42578125 C157.67046875 275.94527344 158.3253125 276.46476562 159 277 C159 277.33 159 277.66 159 278 C115.87660316 278.85371192 76.50698 272.52288521 44 242 C19.25642487 217.8687113 7.845184 183.47915944 2.875 150 C2.70613281 148.91460938 2.53726562 147.82921875 2.36328125 146.7109375 C0.61633117 135.18381805 -0.15075314 123.81928072 -0.11352539 112.16308594 C-0.11367142 110.9421373 -0.11381744 109.72118866 -0.1139679 108.46324158 C-0.1133958 105.15618113 -0.10842457 101.84918524 -0.10139394 98.54213619 C-0.09508872 95.07083773 -0.09455098 91.59953817 -0.09336853 88.12823486 C-0.09027616 81.57313084 -0.08209135 75.01804374 -0.07201904 68.46294713 C-0.0596885 60.25785343 -0.05425869 52.05275692 -0.04882812 43.84765625 C-0.03912444 29.23175769 -0.01908634 14.615896 0 0 Z " fill="#0CA1FE" transform="translate(1287,1363)"/>
<path d="M0 0 C14.19 0 28.38 0 43 0 C43 8.58 43 17.16 43 26 C28.81 26 14.62 26 0 26 C0 17.42 0 8.84 0 0 Z " fill="#0DA2FF" transform="translate(563,1105)"/>
</svg>
