<?xml version="1.0" encoding="UTF-8"?>
<svg version="1.1" xmlns="http://www.w3.org/2000/svg" width="2000" height="1506">
<path d="M0 0 C83.49 0 166.98 0 253 0 C251.87502896 12.3746814 251.87502896 12.3746814 251.16184998 16.59220886 C250.91849663 18.05001676 250.91849663 18.05001676 250.67022705 19.53727531 C250.4050528 21.08733111 250.4050528 21.08733111 250.13452148 22.66870117 C249.94412796 23.80204454 249.75373444 24.93538792 249.55757141 26.10307503 C249.02853924 29.24757329 248.49582949 32.39142322 247.96166873 35.53505349 C247.37390667 39.00030046 246.79123828 42.46640424 246.20802307 45.93241882 C245.1748208 52.06917746 244.13890195 58.2054724 243.10131836 64.3414917 C240.47776903 79.85839915 237.86930189 95.37784837 235.25944901 110.89706421 C234.61954914 114.70210726 233.97945911 118.50711824 233.33921432 122.31210327 C224.38719315 175.51604385 215.52057271 228.73423686 206.65359354 281.9524045 C205.99753788 285.88977664 205.34141316 289.82713728 204.68525314 293.76449203 C193.71781202 359.57586227 182.77203691 425.3907257 171.88965034 491.21621478 C161.20990646 555.8152244 150.44031469 620.399206 139.66927528 684.98304653 C136.29982132 705.18652618 132.93063824 725.39005096 129.5625 745.59375 C129.35175591 746.85789356 129.14101181 748.12203712 128.92388153 749.42448807 C123.62206738 781.22847873 118.32710372 813.03357664 113.0625 844.84375 C112.93293159 845.62663769 112.80336319 846.40952538 112.66986847 847.21613693 C110.77869446 858.64388994 108.88916329 870.07191445 107 881.5 C99.51030578 926.80728857 91.98892377 972.10920496 84.4375 1017.40625 C84.22656259 1018.67155344 84.01562519 1019.93685687 83.79829574 1021.24050283 C80.31396012 1042.14068745 76.82842088 1063.04067133 73.34279299 1083.94064045 C70.10952063 1103.32752803 66.87653956 1122.71446414 63.64453125 1142.1015625 C63.43510399 1143.35780505 63.22567673 1144.61404759 63.00990319 1145.9083581 C55.47039372 1191.13555298 47.96012252 1236.36752847 40.47678757 1281.60404968 C39.3117304 1288.64665574 38.14614227 1295.68917392 36.98060143 1302.73169994 C36.35561873 1306.50805951 35.73067253 1310.28442511 35.10572815 1314.06079102 C34.98383737 1314.79734153 34.8619466 1315.53389205 34.73636216 1316.29276228 C33.77688025 1322.09065573 32.81743375 1327.88855505 31.85800415 1333.68645716 C31.27331972 1337.21974336 30.68862525 1340.7530279 30.10390568 1344.28630829 C29.87110943 1345.69302873 29.6383134 1347.09974921 29.40551758 1348.50646973 C29.29024733 1349.20301462 29.17497708 1349.89955951 29.0562138 1350.61721182 C28.34258975 1354.92952439 27.62908567 1359.24185679 26.91565722 1363.55420172 C24.23299408 1379.7694236 21.54805038 1395.98426174 18.85507679 1412.19777489 C17.80194929 1418.53895474 16.75012858 1424.88034354 15.70199585 1431.22235107 C14.75796525 1436.93438223 13.81029048 1442.64579548 12.85951996 1448.35670853 C12.51615901 1450.42322323 12.17418874 1452.48996953 11.83368683 1454.55695724 C11.37452749 1457.34296633 10.91047359 1460.12811454 10.44506836 1462.91308594 C10.24512787 1464.13734063 10.24512787 1464.13734063 10.04114819 1465.38632774 C9.11416179 1470.88583821 9.11416179 1470.88583821 8 1472 C6.64472265 1472.09638077 5.28445733 1472.12371945 3.92575741 1472.12304783 C3.04246728 1472.12503888 2.15917715 1472.12702993 1.24912065 1472.12908131 C0.26762358 1472.12616847 -0.7138735 1472.12325563 -1.72511292 1472.12025452 C-3.27610267 1472.12153615 -3.27610267 1472.12153615 -4.85842556 1472.12284368 C-8.35167913 1472.12450158 -11.84488555 1472.11897206 -15.33813477 1472.11352539 C-17.8308614 1472.11324356 -20.32358811 1472.11340117 -22.8163147 1472.1139679 C-28.19764891 1472.11419622 -33.57896821 1472.11134477 -38.96029854 1472.10573006 C-46.74088297 1472.0976173 -54.52146154 1472.09500007 -62.30204975 1472.09374207 C-74.92427021 1472.09155119 -87.54648422 1472.08489015 -100.16870117 1472.07543945 C-112.43302376 1472.06626625 -124.6973446 1472.05918497 -136.96166992 1472.05493164 C-137.71711708 1472.05466892 -138.47256424 1472.05440619 -139.25090373 1472.05413551 C-143.04060312 1472.05283051 -146.83030251 1472.05156679 -150.62000191 1472.05032361 C-182.08000596 1472.03994989 -213.540002 1472.0222565 -245 1472 C-244.43892821 1464.74250839 -243.5398162 1457.63632011 -242.25535583 1450.47325134 C-241.99548982 1448.99044912 -241.99548982 1448.99044912 -241.73037398 1447.47769129 C-241.35633583 1445.34509697 -240.98038694 1443.21283704 -240.6026994 1441.08088601 C-239.56966987 1435.2456516 -238.55289431 1429.40757838 -237.53439331 1423.5697937 C-237.3229612 1422.35977796 -237.11152908 1421.14976222 -236.89368993 1419.90307933 C-234.71793875 1407.42987118 -232.61808441 1394.94435985 -230.53540039 1382.45532227 C-230.34896725 1381.33821346 -230.16253411 1380.22110465 -229.97045147 1379.07014406 C-228.79841517 1372.04571909 -227.62884668 1365.02088512 -226.46005034 1357.99592042 C-225.39999954 1351.62670164 -224.33807875 1345.25779456 -223.27644348 1338.88883972 C-221.35458262 1327.35782295 -219.43437043 1315.82653225 -217.5149681 1304.29510602 C-215.7453425 1293.66353558 -213.97493981 1283.03209485 -212.20391846 1272.40075684 C-201.027529 1205.308479 -189.87028527 1138.213083 -178.77681726 1071.10703725 C-168.13495351 1006.73327814 -157.40259718 942.37465473 -146.66913545 878.01611447 C-133.33275249 798.09168056 -133.33275249 798.09168056 -120.0625 718.15625 C-119.93293159 717.37336231 -119.80336319 716.59047462 -119.66986847 715.78386307 C-117.77869446 704.35611006 -115.88916329 692.92808555 -114 681.5 C-106.51030578 636.19271143 -98.98892433 590.89079495 -91.4375 545.59375 C-91.22670067 544.32927505 -91.01590135 543.06480009 -90.79871416 541.76200771 C-87.42321062 521.51463813 -84.04657811 501.26745683 -80.66983211 481.02029443 C-77.30800569 460.86257602 -73.94644833 440.70481278 -70.5859375 420.546875 C-70.27038572 418.65404581 -70.27038572 418.65404581 -69.94845915 416.72297764 C-62.85585312 374.17657985 -55.78967052 331.62588229 -48.75281101 289.07023138 C-39.18529923 231.2104475 -29.59092474 173.35513626 -19.96361542 115.50527 C-19.56995869 113.13978497 -19.17630482 110.77429946 -18.78265381 108.40881348 C-18.58851143 107.2421948 -18.39436905 106.07557613 -18.19434357 104.87360537 C-16.83308554 96.69262332 -15.47355612 88.51135517 -14.11480713 80.32995605 C-12.46645722 70.40490709 -10.81586544 60.48023429 -9.16231292 50.55605072 C-8.31037671 45.44258849 -7.45951037 40.32895393 -6.61136818 35.21486092 C-5.8290332 30.49781538 -5.04371349 25.78127703 -4.25597072 21.06513166 C-3.96945232 19.34649797 -3.68404812 17.6276781 -3.39982533 15.90866327 C-3.01488231 13.58148914 -2.6260021 11.2550075 -2.23606873 8.92866516 C-1.9120138 6.98075309 -1.9120138 6.98075309 -1.58141232 4.99348927 C-1 2 -1 2 0 0 Z " fill="#B5B5B5" transform="translate(996,17)"/>
<path d="M0 0 C0.45808614 37.12159731 0.81034486 74.24276791 1.02130659 111.36662124 C1.0463198 115.75239404 1.07220633 120.13816128 1.09863281 124.52392578 C1.10650213 125.83357939 1.10650213 125.83357939 1.11453041 127.16969064 C1.2014867 141.29504435 1.35913312 155.41876508 1.54305592 169.54315099 C1.73029421 184.04342607 1.84121709 198.54284791 1.8817699 213.0442822 C1.9091748 221.98885588 1.99559676 230.92881456 2.15832934 239.87196657 C2.26431504 246.01039711 2.29594898 252.14645393 2.27002755 258.2857323 C2.25724663 261.82649397 2.27634357 265.35922036 2.3841095 268.89853859 C2.98217524 289.53890308 2.98217524 289.53890308 -1.97640324 295.29380322 C-6.75283964 299.20041842 -11.98164466 301.7463995 -17.68243456 304.0305419 C-20.69412488 305.29035857 -23.22124073 306.88178857 -25.921875 308.70703125 C-26.72608887 309.22257568 -27.53030273 309.73812012 -28.35888672 310.26928711 C-29.1479541 310.77854736 -29.93702148 311.28780762 -30.75 311.8125 C-32.60102982 312.99822781 -34.45261277 314.18309247 -36.3046875 315.3671875 C-37.23764648 315.96370117 -38.17060547 316.56021484 -39.13183594 317.17480469 C-44.02843274 320.29082083 -48.95101549 323.36500723 -53.875 326.4375 C-54.87241211 327.05987549 -55.86982422 327.68225098 -56.89746094 328.32348633 C-58.92075337 329.58551906 -60.94419116 330.84731879 -62.96777344 332.10888672 C-66.98153883 334.61215779 -70.9928297 337.11937658 -75.00390625 339.62695312 C-78.00491556 341.50307303 -81.00636412 343.37848889 -84.0078125 345.25390625 C-87.98331222 347.73843187 -91.95713295 350.22561199 -95.9296875 352.71484375 C-106.36391232 359.24985065 -116.82027818 365.74595628 -127.3125 372.1875 C-135.53944747 377.23898596 -143.73817508 382.32948433 -151.89111328 387.49951172 C-161.20030515 393.40227299 -170.55560182 399.23109496 -179.90625 405.06787109 C-182.98018935 406.98762772 -186.05281876 408.90946258 -189.125 410.83203125 C-199.42556651 417.27723104 -209.7379315 423.70227297 -220.07373047 430.09082031 C-229.72095842 436.05746647 -239.33597169 442.07548109 -248.95166016 448.09277344 C-253.96658596 451.23041563 -258.98337765 454.36507133 -264 457.5 C-266.00000915 458.74998537 -268.00000914 459.99998537 -270 461.25 C-274 463.75 -278 466.25 -282 468.75 C-282.9902417 469.36891113 -283.9804834 469.98782227 -285.00073242 470.62548828 C-286.99825443 471.87391921 -288.99581295 473.12229173 -290.9934082 474.37060547 C-296.03162434 477.51913118 -301.06917728 480.66870893 -306.10546875 483.8203125 C-318.30385604 491.45211402 -330.5147787 499.06295518 -342.765625 506.61035156 C-344.28311974 507.55414309 -345.79335982 508.50967971 -347.296875 509.47558594 C-348.01359375 509.93481445 -348.7303125 510.39404297 -349.46875 510.8671875 C-350.10232422 511.2782373 -350.73589844 511.68928711 -351.38867188 512.11279297 C-353 513 -353 513 -355 513 C-355 513.66 -355 514.32 -355 515 C-354.34386719 515.22429688 -353.68773437 515.44859375 -353.01171875 515.6796875 C-349.003825 517.43671485 -345.48174616 519.75314974 -341.8125 522.125 C-333.92531141 527.16732262 -325.98140987 532.10824342 -318 537 C-309.66861588 542.11278246 -301.36521604 547.26381066 -293.11010742 552.4987793 C-283.79322147 558.40625025 -274.43015687 564.23963122 -265.07177734 570.08105469 C-262.06326206 571.96048007 -259.05669021 573.84297196 -256.05078125 575.7265625 C-245.62334326 582.25811022 -235.17325419 588.74992698 -224.6875 595.1875 C-216.46055253 600.23898596 -208.26182492 605.32948433 -200.10888672 610.49951172 C-193.85907878 614.46238248 -187.58935201 618.39261448 -181.3125 622.3125 C-180.30300293 622.94293213 -179.29350586 623.57336426 -178.25341797 624.22290039 C-176.19587228 625.5076015 -174.13825468 626.79218745 -172.08056641 628.07666016 C-168.04936042 630.59352818 -164.01935739 633.11231795 -159.98950195 635.63134766 C-157.99205323 636.87989584 -155.99449413 638.12826747 -153.99682617 639.37646484 C-149.01957977 642.48648555 -144.04362237 645.59853138 -139.0703125 648.71484375 C-128.63608768 655.24985065 -118.17972182 661.74595628 -107.6875 668.1875 C-99.46055253 673.23898596 -91.26182492 678.32948433 -83.10888672 683.49951172 C-73.79969485 689.40227299 -64.44439818 695.23109496 -55.09375 701.06787109 C-52.01981065 702.98762772 -48.94718124 704.90946258 -45.875 706.83203125 C-43.85418273 708.09637985 -41.83334952 709.36070296 -39.8125 710.625 C-38.33499268 711.54962036 -38.33499268 711.54962036 -36.82763672 712.49291992 C-31.91774809 715.56251135 -27.00113888 718.62038868 -22.0703125 721.65625 C-21.1218042 722.24067871 -20.1732959 722.82510742 -19.19604492 723.42724609 C-17.41894456 724.5209673 -15.64055817 725.61260306 -13.8605957 726.70166016 C-13.05968506 727.19456543 -12.25877441 727.6874707 -11.43359375 728.1953125 C-10.74322021 728.61828613 -10.05284668 729.04125977 -9.34155273 729.47705078 C-8.56884033 729.97962402 -7.79612793 730.48219727 -7 731 C-6.42899329 731.27443268 -5.85798657 731.54886537 -5.26967663 731.8316142 C-3.10535612 733.0315997 -1.62309634 734.12038021 0 736 C1.05276351 739.88064064 0.91449773 743.68680527 0.84178162 747.6867218 C0.84776259 748.88339122 0.85374356 750.08006063 0.85990578 751.31299275 C0.86944451 754.63203507 0.84757407 757.94818828 0.81245935 761.26688111 C0.78222957 764.8462396 0.79245968 768.42550887 0.79777527 772.00495911 C0.80144579 778.20547443 0.77948399 784.40547414 0.7401104 790.60585976 C0.68322044 799.57048346 0.66499033 808.53485785 0.65619446 817.49964251 C0.64087404 832.04425523 0.59428966 846.58859314 0.52807617 861.13305664 C0.46382293 875.26162338 0.41427407 889.39011548 0.38452148 903.51879883 C0.38176289 904.82513247 0.38176289 904.82513247 0.37894856 906.15785668 C0.3698133 910.52685184 0.36096734 914.89584754 0.35226524 919.26484358 C0.27969815 955.51008976 0.15640621 991.75502348 0 1028 C-4.14427888 1026.41644923 -7.61283289 1024.38620815 -11.25 1021.875 C-18.0911638 1017.23340246 -25.02789708 1012.75464152 -32 1008.3125 C-40.22124136 1003.07103414 -48.40950544 997.78445227 -56.5625 992.4375 C-67.27244787 985.42532965 -78.10954721 978.62859271 -88.98388672 971.875 C-93.9952695 968.75961876 -98.99715684 965.62906877 -104 962.5 C-105.99995428 961.24992685 -107.99995428 959.99992685 -110 958.75 C-209 896.875 -308 835 -508.99902344 709.37548828 C-511.00213241 708.12362665 -513.005388 706.87199961 -515.00878906 705.62060547 C-519.96244165 702.52598035 -524.91360614 699.427524 -529.859375 696.3203125 C-552.21079888 682.28932885 -574.78820483 668.65145884 -597.51757812 655.24316406 C-598.17267365 654.85592667 -598.82776917 654.46868927 -599.50271606 654.06971741 C-601.27631177 653.02140325 -603.05095918 651.97486899 -604.82568359 650.9284668 C-605.87320801 650.29207275 -606.92073242 649.65567871 -608 649 C-609.03614756 648.51265664 -610.07229511 648.02531328 -611.13984108 647.52320194 C-614.2737505 644.75850021 -614.44441965 644.37973922 -614.82767296 640.46913052 C-614.8946707 638.54701061 -614.92844781 636.62357092 -614.93685913 634.70030212 C-614.96456379 633.64039946 -614.99226844 632.58049679 -615.02081263 631.48847586 C-615.10585577 627.92450049 -615.14758212 624.3613618 -615.18896484 620.79663086 C-615.23964573 618.24557763 -615.2925039 615.69456686 -615.34738159 613.14360046 C-615.50063465 605.47618227 -615.60094416 597.80876032 -615.68640655 590.14032087 C-615.71086099 587.97162895 -615.73671919 585.80295823 -615.76302767 583.63428807 C-615.92601067 570.14787616 -616.0675012 556.6613891 -616.15077782 543.17423153 C-616.17039371 540.05064148 -616.19024652 536.92705311 -616.21044922 533.8034668 C-616.21545014 533.02717163 -616.22045107 532.25087646 -616.22560354 531.4510572 C-616.31005278 518.9033184 -616.52489025 506.36134761 -616.79370253 493.81634419 C-617.06786607 480.91475929 -617.21955055 468.01611612 -617.25485384 455.11163431 C-617.27774566 447.87303281 -617.35393079 440.64366401 -617.56675339 433.40794182 C-618.85076514 388.19602563 -618.85076514 388.19602563 -610.93079376 378.80092239 C-603.93542276 372.00691966 -595.21354946 368.57581847 -586.1158638 365.53578377 C-579.33686428 363.17616258 -573.50077374 359.11864952 -567.5 355.25 C-565.2107029 353.83874144 -562.91019701 352.44717936 -560.609375 351.0546875 C-551.34353009 345.3832115 -542.13442567 339.62202895 -532.93554688 333.84277344 C-527.96195986 330.72063149 -522.9805465 327.61102296 -518 324.5 C-515.99996344 323.2500585 -513.99996341 322.00005854 -512 320.75 C-314.00000006 197.00000004 -314.00000006 197.00000004 -112.99951172 71.37475586 C-111.00106616 70.12568672 -109.00269366 68.87650066 -107.00439453 67.62719727 C-101.98120665 64.48698864 -96.9567348 61.34887082 -91.9296875 58.21484375 C-71.70051234 45.59869392 -51.61292036 32.78492988 -31.65966797 19.73681641 C-25.12180799 15.46746301 -18.56329453 11.23011044 -12 7 C-11.41669922 6.62311035 -10.83339844 6.2462207 -10.23242188 5.85791016 C-8.65652193 4.84033166 -7.07834443 3.82628277 -5.5 2.8125 C-4.21609375 1.98685547 -4.21609375 1.98685547 -2.90625 1.14453125 C-1 0 -1 0 0 0 Z " fill="#B5B5B5" transform="translate(633,239)"/>
<path d="M0 0 C1.75809627 0.95016411 3.51513539 1.90228446 5.27172852 2.85522461 C6.25029312 3.38522568 7.22885773 3.91522675 8.23707581 4.46128845 C11.60953671 6.33945961 14.75036148 8.38342194 17.9375 10.5625 C19.21927938 11.43082921 20.50187685 12.29795166 21.78515625 13.1640625 C22.46078613 13.62071289 23.13641602 14.07736328 23.83251953 14.54785156 C27.81963415 17.21910159 31.8483207 19.8264321 35.875 22.4375 C36.72562012 22.98921875 37.57624023 23.5409375 38.45263672 24.109375 C40.1539036 25.21226972 41.85539835 26.31481304 43.55712891 27.41699219 C45.83502412 28.89309378 48.11116431 30.37185588 50.38671875 31.8515625 C67.7628689 43.14010175 85.34245842 54.10456822 102.91943359 65.07666016 C107.94746487 68.21589223 112.97365341 71.35807151 118 74.5 C119.99999085 75.75001464 121.99999086 77.00001462 124 78.25 C322 202 322 202 499.00073242 312.62548828 C500.99825443 313.87391921 502.99581295 315.12229173 504.9934082 316.37060547 C510.03162434 319.51913118 515.06917728 322.66870893 520.10546875 325.8203125 C525.12734028 328.96260607 530.15154771 332.10113565 535.17724609 335.23730469 C536.97783565 336.36169983 538.77771552 337.4872328 540.57666016 338.61425781 C553.74709268 346.86429784 567.06149054 354.86037751 580.46286374 362.72862834 C581.75243265 363.49434446 583.03581239 364.27065792 584.31045312 365.06097442 C588.35930004 367.54897782 592.43075792 369.6901556 596.75467396 371.66533947 C611.94166425 379.02728507 611.94166425 379.02728507 615.34901977 385.60369134 C617.52072614 393.03951266 617.18786665 400.69690944 617.05541992 408.37036133 C617.09482775 410.92625403 617.14391549 413.48201289 617.20188904 416.03755188 C617.3146237 422.23353132 617.32011826 428.42132204 617.27052339 434.61788515 C617.23207347 439.65851386 617.23715114 444.69737435 617.27245522 449.73801231 C617.27742319 450.45835181 617.28239116 451.17869131 617.28750968 451.92085927 C617.29772606 453.38475485 617.30801152 454.84864994 617.31836525 456.31254455 C617.40960064 470.00881116 617.3565915 483.70164378 617.25603626 497.39765396 C617.17375672 509.1169848 617.22662252 520.82951417 617.37573242 532.5480957 C617.54936608 546.19419451 617.62957154 559.8360346 617.56989557 573.48324603 C617.56382796 574.94234352 617.55791176 576.40144166 617.55214882 577.86054039 C617.54930404 578.57821535 617.54645927 579.2958903 617.54352828 580.03531298 C617.53018667 585.06127477 617.58367543 590.08391279 617.66344261 595.10917091 C618.32978572 640.10404543 618.32978572 640.10404543 611.22697449 649.03297997 C605.12519673 655.27646257 597.51933433 658.39075831 589.29267693 660.91785812 C584.75179515 662.41022389 581.0077183 664.71474886 577.0390625 667.32421875 C575.78973503 668.06880463 574.53702915 668.80778682 573.27929688 669.53808594 C560.24175103 677.20241728 547.38912385 685.09567725 534.67480469 693.28759766 C529.84946103 696.37676893 524.98652036 699.40570189 520.125 702.4375 C519.12662109 703.06043945 518.12824219 703.68337891 517.09960938 704.32519531 C515.07731128 705.58668687 513.05484986 706.84791665 511.03222656 708.10888672 C506.01909459 711.23543424 501.00972757 714.36800161 496 717.5 C494.00001829 718.75002926 492.00001828 720.00002926 490 721.25 C488.515 722.178125 488.515 722.178125 487 723.125 C388 785 289 846.875 114.9987793 955.62573242 C113.00281172 956.87323247 111.00688061 958.12079088 109.01098633 959.3684082 C103.94959084 962.53214182 98.88752606 965.69479561 93.82421875 968.85546875 C87.88029511 972.56629526 81.93952465 976.28213765 76 980 C75.18257324 980.51095215 74.36514648 981.0219043 73.52294922 981.54833984 C61.31233775 989.18666224 49.24631684 997.03905458 37.203125 1004.9375 C31.35214891 1008.77397183 25.48201142 1012.57977257 19.59887695 1016.36669922 C14.41709136 1019.70898681 9.3067082 1023.147115 4.22265625 1026.63671875 C2 1028 2 1028 0 1028 C-0.22886583 990.92023046 -0.40508453 953.84056727 -0.51065329 916.76023438 C-0.52316043 912.38304247 -0.53610365 908.00585195 -0.54931641 903.62866211 C-0.55193951 902.75723877 -0.55456261 901.88581543 -0.55726521 900.98798532 C-0.60078408 886.87607077 -0.6796324 872.7645634 -0.77152796 858.65289044 C-0.86502857 844.17403315 -0.9205845 829.69538918 -0.94088495 815.21624237 C-0.95460976 806.28084207 -0.99796136 797.34659258 -1.07916467 788.41154654 C-1.13200721 782.28521326 -1.14800555 776.15947526 -1.13501377 770.03293061 C-1.12860476 766.49718384 -1.13845333 762.96344806 -1.19205475 759.42805862 C-1.24976398 755.5937055 -1.22988626 751.76197087 -1.20254517 747.92723083 C-1.23167358 746.81146382 -1.26080199 745.69569681 -1.29081309 744.54611868 C-1.20278445 739.98744798 -1.13248345 737.15605993 2.14573216 733.80959713 C4.6937496 731.99830225 7.24540807 730.47380179 10 729 C11.529792 728.06732162 13.05649076 727.12952279 14.578125 726.18359375 C16.13376346 725.26542239 17.69111766 724.35015301 19.25 723.4375 C26.4969209 719.14138434 33.65450988 714.72930231 40.75 710.1875 C57.92971659 699.19521314 75.25509793 688.44421999 92.63525391 677.7722168 C99.75218481 673.39721204 106.83599604 668.97435384 113.89111328 664.50048828 C120.14092122 660.53761752 126.41064799 656.60738552 132.6875 652.6875 C134.20174561 651.74185181 134.20174561 651.74185181 135.74658203 650.77709961 C137.80412772 649.4923985 139.86174532 648.20781255 141.91943359 646.92333984 C145.95063958 644.40647182 149.98064261 641.88768205 154.01049805 639.36865234 C156.00794677 638.12010416 158.00550587 636.87173253 160.00317383 635.62353516 C164.98042023 632.51351445 169.95637763 629.40146862 174.9296875 626.28515625 C185.36391232 619.75014935 195.82027818 613.25404372 206.3125 606.8125 C214.53944747 601.76101404 222.73817508 596.67051567 230.89111328 591.50048828 C237.14092122 587.53761752 243.41064799 583.60738552 249.6875 579.6875 C251.20174561 578.74185181 251.20174561 578.74185181 252.74658203 577.77709961 C254.80412772 576.4923985 256.86174532 575.20781255 258.91943359 573.92333984 C262.95063958 571.40647182 266.98064261 568.88768205 271.01049805 566.36865234 C273.00794677 565.12010416 275.00550587 563.87173253 277.00317383 562.62353516 C281.98042023 559.51351445 286.95637763 556.40146862 291.9296875 553.28515625 C303.49367824 546.04281143 315.09233064 538.86124596 326.72802734 531.73461914 C333.93351642 527.30870372 341.06874781 522.79017267 348.10327148 518.09667969 C352.79113284 515 352.79113284 515 355 515 C355 514.34 355 513.68 355 513 C354.28497314 512.73533936 353.56994629 512.47067871 352.83325195 512.19799805 C349.91062858 510.96221064 347.36391507 509.5034273 344.66796875 507.83203125 C343.63462402 507.19386475 342.6012793 506.55569824 341.53662109 505.89819336 C340.43141113 505.20991455 339.32620117 504.52163574 338.1875 503.8125 C337.02182671 503.09028625 335.85597093 502.36836697 334.68994141 501.64672852 C331.12293941 499.43706098 327.56097925 497.21935646 324 495 C322.95118652 494.34676758 321.90237305 493.69353516 320.82177734 493.02050781 C314.86530464 489.30815517 308.91525536 485.58562242 302.96777344 481.85888672 C297.98095443 478.73535596 292.99027306 475.61800825 288 472.5 C285.99998172 471.25002926 283.99998171 470.00002926 282 468.75 C281.01 468.13125 280.02 467.5125 279 466.875 C246 446.25 246 446.25 243.00048828 444.37524414 C240.99893381 443.12431331 238.99730611 441.87349965 236.99560547 440.62280273 C232.01878404 437.51299731 227.04322032 434.40121669 222.0703125 431.28515625 C211.63608768 424.75014935 201.17972182 418.25404372 190.6875 411.8125 C182.46055253 406.76101404 174.26182492 401.67051567 166.10888672 396.50048828 C159.85907878 392.53761752 153.58935201 388.60738552 147.3125 384.6875 C146.30300293 384.05706787 145.29350586 383.42663574 144.25341797 382.77709961 C142.19587228 381.4923985 140.13825468 380.20781255 138.08056641 378.92333984 C134.04936042 376.40647182 130.01935739 373.88768205 125.98950195 371.36865234 C123.99205323 370.12010416 121.99449413 368.87173253 119.99682617 367.62353516 C115.01957977 364.51351445 110.04362237 361.40146862 105.0703125 358.28515625 C94.63608768 351.75014935 84.17972182 345.25404372 73.6875 338.8125 C65.46504648 333.7637734 57.27124968 328.6753696 49.12207031 323.50927734 C42.74060295 319.46385847 36.34294757 315.44484147 29.9375 311.4375 C29.01694824 310.86056396 28.09639648 310.28362793 27.14794922 309.68920898 C25.75793701 308.82017944 25.75793701 308.82017944 24.33984375 307.93359375 C23.42701567 307.33056836 22.51418758 306.72754297 21.57369804 306.10624409 C18.97203735 304.47226167 16.3745262 303.31595314 13.51521492 302.19909191 C8.27348267 299.94603465 3.63101744 297.50468399 0 293 C-3.15317684 284.82658798 -2.32501725 275.57137407 -2.08918118 266.95218217 C-2.010976 263.36477546 -2.03778475 259.77790045 -2.05142212 256.18988037 C-2.06083278 249.98334715 -2.00467707 243.78023606 -1.90314102 237.57456398 C-1.75644579 228.60298507 -1.70993657 219.63305003 -1.68735717 210.6604019 C-1.6480229 196.10168465 -1.52840822 181.54478929 -1.35791016 166.98706055 C-1.19252443 152.85108518 -1.06519568 138.71560576 -0.98876953 124.57885742 C-0.98404051 123.70655768 -0.97931149 122.83425793 -0.97443916 121.93552486 C-0.95094739 117.55917207 -0.92820091 113.18281578 -0.9058249 108.80645716 C-0.71941523 72.53635207 -0.40255252 36.26831825 0 0 Z " fill="#B4B4B4" transform="translate(1367,239)"/>
</svg>
