<?xml version="1.0" encoding="UTF-8"?>
<svg version="1.1" xmlns="http://www.w3.org/2000/svg" width="512" height="512">
<path d="M0 0 C7.8486229 5.12655716 12.0771273 10.47356939 15.02734375 19.32421875 C15.12640269 21.90675505 15.16907458 24.4624577 15.16537476 27.04515076 C15.16819604 27.8396235 15.17101732 28.63409625 15.17392409 29.45264393 C15.18227963 32.12395666 15.18360919 34.79522799 15.18505859 37.46655273 C15.18972632 39.37853614 15.19486982 41.29051844 15.20045471 43.20249939 C15.2117438 47.32600742 15.22017428 51.44950819 15.22657394 55.57302666 C15.23725289 62.10014919 15.2574995 68.62721986 15.2796936 75.15431213 C15.34161482 93.71735242 15.3955668 112.28039027 15.42871094 130.84350586 C15.44708861 141.09129005 15.47606758 151.33898791 15.51671565 161.58670861 C15.53773967 167.00741196 15.55323632 172.42800671 15.55552292 177.84875298 C15.55767921 182.95497479 15.57364838 188.06097084 15.59991264 193.16712379 C15.60707088 195.0342522 15.60922361 196.90140806 15.60581017 198.76854706 C15.58111017 214.85779548 16.9222911 228.71043472 28.27734375 241.13671875 C36.20914701 248.57717137 46.58924861 251.64323199 57.27398682 251.57577515 C58.07666638 251.57874529 58.87934595 251.58171542 59.70634913 251.58477557 C62.38145498 251.59238101 65.05633901 251.58593573 67.73144531 251.57958984 C69.65549365 251.5823414 71.57954086 251.5860223 73.50358582 251.59056091 C77.64068385 251.59866078 81.77772788 251.60084439 85.91483307 251.59861374 C92.46302181 251.59577566 99.0111031 251.61015165 105.55926514 251.62759399 C124.17767728 251.67457207 142.79608199 251.6985563 161.41455078 251.70507812 C171.70228201 251.70883386 181.98989145 251.72690434 192.27757049 251.76017249 C198.78010624 251.78034204 205.28232695 251.78277841 211.78488111 251.77189231 C215.8400399 251.76927663 219.89501703 251.78333108 223.95012856 251.80197334 C225.82252399 251.8072749 227.69495332 251.8058336 229.56733513 251.79693794 C242.84268773 251.73898239 253.99257888 252.37965882 264.08203125 262.03515625 C269.91332706 268.89688185 272.46745934 276.66090094 272.28515625 285.5546875 C271.54788395 293.47477928 268.66156651 299.00345865 263.2449646 304.77912903 C262.76409279 305.29330598 262.28322098 305.80748293 261.7877773 306.33724099 C255.6050983 312.90540646 249.22923174 319.28650404 242.85791016 325.6706543 C241.46835339 327.06649366 240.07897988 328.46251547 238.68977356 329.85870361 C234.17299764 334.39628907 229.65109865 338.92875122 225.12890625 343.4609375 C223.5618624 345.03203599 221.99484982 346.60316569 220.42786789 348.17432594 C213.06906484 355.55212085 205.70789316 362.92754228 198.34377444 370.30003136 C189.8797316 378.77385846 181.42404982 387.25591635 172.97530806 395.74499863 C166.41555204 402.33498704 159.8480694 408.91721157 153.27483308 415.49375373 C149.36116337 419.40976335 145.45080589 423.32894506 141.54863358 427.25641441 C137.87853024 430.94993228 134.19885814 434.63365017 130.51192284 438.31036377 C129.16899196 439.65280262 127.82941137 440.99860372 126.49365807 442.34818459 C111.83381609 457.15113127 97.67994439 468.47927322 76.02734375 468.63671875 C49.65348944 468.67751357 35.20216841 452.57318491 17.67241156 435.12987518 C15.24419431 432.70874601 12.81735257 430.28625575 10.39134085 427.86291766 C7.75303443 425.22856429 5.11192272 422.59702554 2.47125244 419.96504211 C-3.87941888 413.63397872 -10.22538402 407.29820851 -16.57071951 400.96179795 C-18.96555585 398.57047932 -21.36070562 396.17947476 -23.75587121 393.78848591 C-34.33128508 383.23151047 -44.90535625 372.6731923 -55.4754076 362.11084747 C-58.05219898 359.53596553 -60.62899585 356.96108908 -63.20581055 354.38623047 C-64.16632237 353.42644426 -64.16632237 353.42644426 -65.14623847 352.44726843 C-75.53530541 342.06651426 -85.93287264 331.69431772 -96.33398632 321.32563537 C-107.03747197 310.65525028 -117.73338456 299.9773213 -128.42192954 289.29196978 C-134.41357918 283.30248062 -140.40844802 277.31629474 -146.41181374 271.33854675 C-151.5191408 266.25296626 -156.61953764 261.16056013 -161.71114967 256.05924404 C-164.3054992 253.46036361 -166.90290762 250.86475777 -169.50925255 248.2779026 C-172.34165266 245.46649998 -175.1581202 242.63963896 -177.97346497 239.81115723 C-178.78922542 239.00636602 -179.60498587 238.20157481 -180.44546634 237.37239599 C-187.57732074 230.16027537 -193.35570501 222.08448164 -196.84765625 212.51171875 C-197.23695313 211.47402344 -197.62625 210.43632812 -198.02734375 209.3671875 C-202.29936063 195.61552986 -200.3332832 181.31058685 -194.47265625 168.38671875 C-187.48594614 155.42227401 -175.98295573 145.03845098 -165.64794922 134.72485352 C-164.24182562 133.31437114 -162.83611672 131.90347525 -161.43078613 130.49220276 C-157.65055085 126.69869989 -153.86406465 122.91149821 -150.07591772 119.12589765 C-146.90296057 115.95401736 -143.73300082 112.77914955 -140.56297028 109.60434479 C-133.0845103 102.11483465 -125.60079086 94.63060908 -118.11376953 87.1496582 C-110.40633507 79.44827688 -102.70815703 71.73773015 -95.01438415 64.02270275 C-88.3859507 57.3766365 -81.75170651 50.73640993 -75.11282456 44.1007809 C-71.15725439 40.1470191 -67.20391509 36.19109155 -63.25622177 32.22946358 C-59.54789585 28.50853457 -55.83234322 24.79497441 -52.11120605 21.08685875 C-50.75136185 19.72937344 -49.39404354 18.36935212 -48.03952408 17.00655365 C-35.14675412 4.04070545 -19.48138518 -10.33928264 0 0 Z " fill="#FF8433" transform="translate(200.97265625,42.67578125)"/>
<path d="M0 0 C0.83983938 -0.00453111 1.67967877 -0.00906223 2.54496783 -0.01373065 C5.35764586 -0.02638551 8.17013052 -0.02475357 10.98283386 -0.02310181 C13.0001246 -0.02908639 15.01741305 -0.03589178 17.03469849 -0.04345703 C22.51411589 -0.06113173 27.99347083 -0.06581305 33.47291398 -0.0670886 C38.04790681 -0.06898787 42.62288511 -0.07634576 47.19787234 -0.08343279 C57.9927368 -0.09972008 68.7875679 -0.10460145 79.58244324 -0.10317993 C90.71543107 -0.10197852 101.84822503 -0.12307964 112.9811638 -0.15466726 C122.54140472 -0.18082537 132.10158231 -0.19154741 141.66185874 -0.19026911 C147.37085164 -0.18975933 153.07967229 -0.19545176 158.78862953 -0.21662521 C164.15916525 -0.23599953 169.52936424 -0.2361374 174.89991188 -0.22159195 C176.86871838 -0.21950174 178.83754592 -0.22421736 180.80631638 -0.23631287 C183.49895751 -0.25178141 186.19043992 -0.24244675 188.88305664 -0.22705078 C189.65787866 -0.23733791 190.43270068 -0.24762503 191.23100215 -0.25822389 C197.61647642 -0.17781723 202.68381255 1.83473336 207.62028503 5.90805054 C208.05727722 6.43914429 208.49426941 6.97023804 208.94450378 7.51742554 C209.619328 8.29859741 209.619328 8.29859741 210.30778503 9.09555054 C214.02598652 15.1938397 215.07551934 20.80695754 215.01968384 27.79290771 C215.02776214 29.02376836 215.02776214 29.02376836 215.03600365 30.27949488 C215.05022817 33.00918877 215.04319321 35.73839394 215.03605652 38.46810913 C215.041763 40.43333829 215.04872833 42.39856414 215.05685425 44.36378479 C215.07477082 49.6882408 215.07361996 55.01253187 215.06791186 60.33700895 C215.06481759 64.7877027 215.07091518 69.23836488 215.07695061 73.68905413 C215.09098955 84.19209276 215.08944001 94.69505004 215.07804871 105.1980896 C215.06657024 116.02039641 215.08064014 126.84245533 215.10744518 137.66472948 C215.1296235 146.96859713 215.13623468 156.27238708 215.13036877 165.57627928 C215.12700285 171.12766877 215.12939 176.6788994 215.1466198 182.23026657 C215.16212056 187.45230646 215.1580985 192.67398005 215.13931465 197.89600563 C215.13563734 199.80752939 215.1387121 201.71908047 215.14920044 203.63057899 C215.25389345 224.29586641 215.25389345 224.29586641 208.77262878 232.66976929 C208.14872253 233.17637085 207.52481628 233.68297241 206.88200378 234.20492554 C206.26841003 234.72957397 205.65481628 235.25422241 205.02262878 235.79476929 C198.85097864 239.59658645 193.23074968 240.71177228 186.13775635 240.64837646 C184.91196268 240.65539642 184.91196268 240.65539642 183.6614055 240.6625582 C180.94318426 240.674454 178.22547226 240.66507231 175.50724792 240.65560913 C173.5502493 240.65967727 171.59325298 240.66502051 169.63626099 240.67153931 C164.33458909 240.68519071 159.03309277 240.67992295 153.73141789 240.67040205 C148.17560566 240.66279314 142.6198082 240.66985459 137.06399536 240.67456055 C127.73385426 240.68001495 118.40378445 240.67283519 109.07365417 240.65853882 C98.29794188 240.64221773 87.52239992 240.6474982 76.74669176 240.66401803 C67.48445591 240.67764755 58.22227123 240.67954524 48.96002859 240.67170203 C43.43273626 240.66703297 37.90552391 240.66637948 32.37823677 240.67631149 C27.18004858 240.685 21.98207921 240.67892475 16.78391457 240.66162872 C14.88003655 240.65767375 12.97614 240.65878092 11.07226944 240.66541672 C8.4656789 240.6736617 5.8597817 240.66327537 3.25323486 240.64837646 C2.50671773 240.65506863 1.76020061 240.6617608 0.99106175 240.66865575 C-6.13970962 240.59004718 -13.72175654 238.92898588 -19.03159428 233.85379601 C-26.92608666 224.48267104 -26.07445751 214.01273608 -25.99909973 202.44076538 C-26.00424356 200.43258534 -26.01152833 198.42440982 -26.02078247 196.41624451 C-26.039243 190.98448334 -26.02639247 185.55321518 -26.00669217 180.12147474 C-25.99026477 174.42773874 -25.99912405 168.73403296 -26.00421143 163.0402832 C-26.00872706 153.48245397 -25.99289347 143.92482079 -25.96492004 134.36703491 C-25.93285234 123.32536838 -25.9328928 112.284055 -25.95013481 101.24236333 C-25.96600978 90.60632051 -25.95926123 79.97040685 -25.9421978 69.33436966 C-25.93533495 64.81380387 -25.93635187 60.29334186 -25.94374275 55.77277756 C-25.95141576 50.44891162 -25.93924598 45.1254467 -25.91189384 39.80164909 C-25.90502034 37.85059359 -25.90490092 35.89950057 -25.91210938 33.94844627 C-25.92083047 31.28010767 -25.9048037 28.61299923 -25.88265991 25.94476318 C-25.89090068 25.17724271 -25.89914145 24.40972224 -25.90763193 23.61894357 C-25.8080856 17.09655081 -23.71164325 11.94188557 -19.40315247 7.02523804 C-18.7521759 6.48640991 -18.10119934 5.94758179 -17.43049622 5.39242554 C-16.78209778 4.83812866 -16.13369934 4.28383179 -15.46565247 3.71273804 C-10.49661527 0.28900664 -5.9000423 -0.02338235 0 0 Z " fill="#FF8433" transform="translate(296.3679962158203,0.732574462890625)"/>
</svg>
