<?xml version="1.0" encoding="UTF-8"?>
<svg version="1.1" xmlns="http://www.w3.org/2000/svg" width="1875" height="1875">
<path d="M0 0 C2.55227808 -0.00343948 5.10455466 -0.00819028 7.65682817 -0.01412097 C13.18938976 -0.02487492 18.72186381 -0.02467702 24.25442936 -0.01704793 C32.53695527 -0.00568181 40.81940817 -0.01178972 49.10193341 -0.02111193 C63.22315233 -0.03649848 77.34434039 -0.03773486 91.46556473 -0.0311327 C105.76660775 -0.02449471 120.06762873 -0.02439282 134.36867142 -0.03217983 C135.72597881 -0.03291183 135.72597881 -0.03291183 137.11070655 -0.03365862 C140.79640806 -0.0356669 144.48210954 -0.03772002 148.16781099 -0.03983036 C185.54327223 -0.06120787 222.91871715 -0.06328893 260.29418296 -0.05777332 C265.45514389 -0.05701757 270.61610482 -0.05628995 275.77706575 -0.05559134 C276.80221768 -0.05545225 277.82736961 -0.05531316 278.88358675 -0.05516986 C301.620531 -0.05221532 324.3574733 -0.05523258 347.09441721 -0.05948763 C350.20788664 -0.06006979 353.32135609 -0.06063864 356.43482553 -0.06120327 C364.78139509 -0.06271827 373.12796465 -0.06424518 381.4745342 -0.06579627 C439.72848626 -0.07655035 497.98243651 -0.0812576 556.23638916 -0.07332611 C557.88291775 -0.07310365 557.88291775 -0.07310365 559.56270955 -0.0728767 C571.80257078 -0.07121776 584.042432 -0.06946817 596.28229322 -0.06768369 C597.38733432 -0.06752266 598.49237542 -0.06736164 599.63090262 -0.06719574 C608.5975419 -0.06588819 608.5975419 -0.06588819 613.03749131 -0.06523455 C683.7150512 -0.05484395 754.39258619 -0.06260889 825.07014275 -0.086236 C842.87900157 -0.09217961 860.68786041 -0.09807126 878.49671936 -0.10364532 C880.14165388 -0.10416098 880.14165388 -0.10416098 881.81981939 -0.10468705 C915.62857639 -0.11521781 949.4373313 -0.12080854 983.24608994 -0.12120247 C984.30782832 -0.12121525 985.36956671 -0.12122803 986.46347898 -0.1212412 C1009.77317618 -0.12146952 1033.0828732 -0.1204632 1056.3925703 -0.11833215 C1064.73350653 -0.11757741 1073.07444276 -0.1168992 1081.415379 -0.116252 C1083.4903121 -0.11608931 1085.5652452 -0.11592164 1087.6401783 -0.11574898 C1120.67302205 -0.11303018 1153.70585065 -0.1215719 1186.73869114 -0.13560309 C1220.94183881 -0.15002485 1255.14495774 -0.14954274 1289.34810443 -0.13222837 C1293.02530029 -0.13042427 1296.70249617 -0.12868407 1300.37969208 -0.12699413 C1301.28210915 -0.12657363 1302.18452623 -0.12615313 1303.11428928 -0.12571989 C1317.37077638 -0.11943596 1331.62722382 -0.12650489 1345.88370534 -0.13920333 C1359.92129416 -0.15142231 1373.95882076 -0.14922962 1387.99640492 -0.13198302 C1396.21278385 -0.12230968 1404.42898539 -0.12335476 1412.64535247 -0.140813 C1418.7674344 -0.15257856 1424.88932102 -0.14317276 1431.01138626 -0.12596715 C1433.45620255 -0.12226288 1435.90104092 -0.125099 1438.34583712 -0.13568023 C1483.37840415 -0.31699294 1528.61779653 11.26527386 1565.26838493 38.38031673 C1565.79045525 38.76397396 1566.31252556 39.14763119 1566.85041618 39.54291439 C1573.58414855 44.51633558 1579.97054377 49.74666327 1586.12775993 55.42719173 C1587.86179752 57.00934281 1589.61537875 58.48978554 1591.45588493 59.94281673 C1594.40436576 62.49816678 1596.85118231 65.20746867 1599.36994743 68.17719173 C1600.64336652 69.65498672 1601.95177544 71.10328584 1603.29182243 72.52094173 C1634.8242764 105.98860046 1655.49496127 155.97900322 1655.3971861 202.0500589 C1655.39896111 203.09605456 1655.40073612 204.14205021 1655.40256492 205.21974271 C1655.40730245 208.73086134 1655.40493248 212.24193885 1655.40260601 215.75305939 C1655.4045593 218.30419567 1655.40694828 220.85533166 1655.40973398 223.40646717 C1655.41509999 228.97380782 1655.41675197 234.54114004 1655.41598324 240.10848308 C1655.41484671 248.44323481 1655.41943243 256.77797673 1655.42511408 265.11272625 C1655.43462156 279.31816169 1655.43933236 293.52359516 1655.44142342 307.72903347 C1655.44355212 322.12702424 1655.44781254 336.52501197 1655.45466614 350.92300129 C1655.45509675 351.8320996 1655.45552737 352.74119792 1655.45597103 353.67784466 C1655.45772939 357.38043751 1655.45949903 361.08303036 1655.46128405 364.78562319 C1655.48288133 409.67158692 1655.49376253 454.55755125 1655.50276029 499.44351899 C1655.50569449 513.99990299 1655.50906441 528.55628683 1655.5127275 543.11267066 C1655.51298579 544.13966343 1655.51324408 545.1666562 1655.5135102 546.22476996 C1655.51455643 550.37969573 1655.51560486 554.5346215 1655.51665602 558.68954727 C1655.53462106 629.76328681 1655.5499996 700.83702658 1655.55741505 771.91076807 C1655.55799902 777.49335761 1655.55859629 783.07594716 1655.55919267 788.6585367 C1655.55931079 789.76593983 1655.55942891 790.87334296 1655.55955061 792.01430377 C1655.56074799 803.23376265 1655.56195675 814.45322153 1655.56318314 825.6726804 C1655.56342837 827.92220631 1655.56367223 830.17173221 1655.56391471 832.42125812 C1655.57170328 904.65715981 1655.59408395 976.89304525 1655.62659114 1049.12893984 C1655.64994073 1101.03275885 1655.67149042 1152.93657462 1655.67859745 1204.84039879 C1655.67874447 1205.90811475 1655.67889149 1206.97583071 1655.67904297 1208.0759017 C1655.682228 1231.51656537 1655.68427875 1254.95722901 1655.68527052 1278.39789288 C1655.68568525 1287.82985906 1655.68624014 1297.26182522 1655.68683243 1306.69379139 C1655.68692343 1308.2421766 1655.68692343 1308.2421766 1655.68701627 1309.82184232 C1655.68903124 1343.05606473 1655.7032622 1376.29026793 1655.72377743 1409.52448364 C1655.74437288 1443.00745083 1655.75224495 1476.49039584 1655.74269967 1509.97336873 C1655.74138128 1514.60445121 1655.74020322 1519.23553371 1655.73910904 1523.86661625 C1655.73888919 1524.77440182 1655.73866934 1525.68218738 1655.73844283 1526.6174816 C1655.73533347 1540.96784767 1655.74563568 1555.3181712 1655.76158459 1569.66852742 C1655.77700311 1583.79359679 1655.77805678 1597.91860757 1655.76403635 1612.04367902 C1655.75625207 1620.31501977 1655.75926579 1628.58618103 1655.77867352 1636.85750368 C1655.79188373 1643.01502457 1655.78397766 1649.17235523 1655.76818616 1655.32986627 C1655.7650559 1657.79300614 1655.76851766 1660.25616633 1655.77967791 1662.71928291 C1655.96301089 1706.02930556 1643.78272556 1749.00244403 1618.26838493 1784.38031673 C1617.58389275 1785.33809017 1616.89940056 1786.29586361 1616.19416618 1787.28266048 C1604.63878721 1803.07017108 1591.67589674 1817.26997098 1576.26838493 1829.38031673 C1574.75438103 1830.60234798 1574.75438103 1830.60234798 1573.20979118 1831.84906673 C1565.32268462 1838.14924504 1557.05568588 1843.42850108 1548.26838493 1848.38031673 C1547.61386345 1848.75543392 1546.95934196 1849.13055111 1546.2849865 1849.51703548 C1518.5655332 1865.31052079 1485.64764707 1875.5771736 1453.60620546 1875.5091179 C1452.56102847 1875.51089291 1451.51585147 1875.51266792 1450.43900244 1875.51449672 C1446.93067287 1875.5192342 1443.42238445 1875.51686429 1439.91405296 1875.51453781 C1437.36492473 1875.5164911 1434.81579679 1875.51888008 1432.26666933 1875.52166578 C1426.70372827 1875.52703177 1421.14079565 1875.52868377 1415.57785219 1875.52791504 C1407.24967199 1875.5267785 1398.92150162 1875.53136425 1390.59332363 1875.53704588 C1376.39905001 1875.54655335 1362.20477836 1875.55126416 1348.01050186 1875.55335522 C1333.62379815 1875.55548392 1319.23709747 1875.55974436 1304.8503952 1875.56659794 C1303.48781336 1875.56724386 1303.48781336 1875.56724386 1302.09770462 1875.56790283 C1298.39800273 1875.56966119 1294.69830084 1875.57143083 1290.99859896 1875.57321585 C1246.14734153 1875.59481328 1201.29608351 1875.60569442 1156.44482207 1875.61469209 C1141.89941507 1875.61762631 1127.35400822 1875.62099624 1112.80860138 1875.6246593 C1111.7823747 1875.62491759 1110.75614801 1875.62517588 1109.69882355 1875.625442 C1105.54698985 1875.62648824 1101.39515615 1875.62753666 1097.24332246 1875.62858782 C1026.22170393 1875.64655303 955.20008516 1875.66193145 884.17846468 1875.66934685 C878.59993767 1875.66993082 873.02141065 1875.67052809 867.44288364 1875.67112447 C866.33628707 1875.67124259 865.22969051 1875.67136071 864.08956071 1875.67148241 C852.87828571 1875.67267979 841.66701071 1875.67388855 830.45573572 1875.67511494 C828.20785181 1875.67536018 825.9599679 1875.67560403 823.71208399 1875.67584651 C751.53159762 1875.68363479 679.35112752 1875.70601472 607.17064826 1875.73852294 C555.30676122 1875.76187322 503.44287742 1875.78342257 451.57898521 1875.79052925 C449.97856548 1875.79074978 449.97856548 1875.79074978 448.34581403 1875.79097477 C424.9217635 1875.79415984 401.49771301 1875.79621056 378.07366229 1875.79720232 C368.64831003 1875.79761705 359.22295777 1875.79817194 349.79760551 1875.79876423 C348.25030831 1875.79885523 348.25030831 1875.79885523 346.67175258 1875.79894807 C313.46362068 1875.80096288 280.255508 1875.81519263 247.04738281 1875.83570923 C213.58933478 1875.85630689 180.13130896 1875.86417561 146.67325523 1875.85463147 C142.04510073 1875.85331309 137.41694621 1875.85213503 132.78879166 1875.85104084 C131.4279801 1875.85071107 131.4279801 1875.85071107 130.03967741 1875.85037463 C115.70129469 1875.84726587 101.36295456 1875.85756515 87.02458171 1875.87351639 C72.90959363 1875.88893896 58.79466418 1875.88998484 44.67967401 1875.87596816 C36.41536056 1875.86818691 28.15122677 1875.87118891 19.88693147 1875.89060532 C13.73283297 1875.90382465 7.57892463 1875.89590144 1.42483597 1875.88011796 C-1.0356051 1875.87698995 -3.49606654 1875.88044101 -5.95648425 1875.89160971 C-59.77805354 1876.11984392 -111.83019011 1857.13768743 -151.08317757 1819.85297298 C-152.97965615 1818.08236687 -154.86565951 1816.4215213 -156.86833382 1814.78266048 C-160.61831258 1811.6363618 -163.57637455 1808.10592765 -166.73161507 1804.38031673 C-167.95364632 1803.00746517 -167.95364632 1803.00746517 -169.20036507 1801.60687923 C-200.31903167 1766.37927385 -219.96593523 1717.79404847 -219.85926557 1670.62895894 C-219.86174173 1669.06496712 -219.86174173 1669.06496712 -219.86426793 1667.46937951 C-219.8685817 1663.97565964 -219.86579511 1660.48198215 -219.86304283 1656.98826122 C-219.86469299 1654.44729224 -219.86677951 1651.9063235 -219.86926293 1649.36535519 C-219.87366703 1643.82343084 -219.87496352 1638.28151909 -219.87353459 1632.73959342 C-219.87141113 1624.44293919 -219.87503009 1616.14629418 -219.87974936 1607.84964137 C-219.88761909 1593.70879605 -219.89071123 1579.56795325 -219.8911953 1565.4271059 C-219.89169771 1551.09565196 -219.89434491 1536.76420085 -219.89960289 1522.43274784 C-219.89993302 1521.52768946 -219.90026316 1520.62263108 -219.90060329 1519.69014669 C-219.9019533 1516.00398466 -219.90331596 1512.31782264 -219.9046954 1508.63166063 C-219.92099772 1464.99063448 -219.92738402 1421.34960888 -219.93214327 1377.7085802 C-219.93452656 1355.97715252 -219.93823005 1334.24572515 -219.94218037 1312.51429771 C-219.95484494 1242.8050092 -219.96562873 1173.0957207 -219.96902083 1103.38643105 C-219.96918307 1100.05470326 -219.96934863 1096.72297547 -219.96951521 1093.39124768 C-219.96984901 1086.70942882 -219.97017949 1080.02760996 -219.97050977 1073.3457911 C-219.97089667 1065.52302534 -219.97128627 1057.70025959 -219.97168083 1049.87749383 C-219.97179325 1047.63855584 -219.97190467 1045.39961785 -219.97201509 1043.16067986 C-219.97556435 971.25723205 -219.990642 899.35379422 -220.01395283 827.45035022 C-220.03069633 775.78326695 -220.04617029 724.11618556 -220.05068779 672.44909954 C-220.05078128 671.38635517 -220.05087476 670.32361079 -220.05097108 669.22866204 C-220.05299022 645.89771625 -220.05414619 622.56677049 -220.05449967 599.23582461 C-220.05463584 590.8872852 -220.05484483 582.53874579 -220.05509292 574.19020638 C-220.05515448 572.11331084 -220.0552128 570.0364153 -220.05526787 567.95951976 C-220.05618736 534.8768418 -220.06615168 501.79417429 -220.08072535 468.71149977 C-220.09534793 435.38442515 -220.10037909 402.05736333 -220.09230581 368.73028608 C-220.09119048 364.12175686 -220.09017981 359.51322763 -220.08923149 354.90469837 C-220.08904152 354.00132711 -220.08885156 353.09795585 -220.08865583 352.1672097 C-220.08592554 337.8813666 -220.09325336 323.59554722 -220.10480486 309.30970928 C-220.1159621 295.25136306 -220.11636046 281.19305027 -220.10543467 267.13470351 C-220.09935446 258.90039562 -220.10138953 250.66618881 -220.11568665 242.43189052 C-220.12539804 236.30531224 -220.11931144 230.17884215 -220.10727632 224.05227012 C-220.10485259 221.59903311 -220.10738975 219.14578451 -220.1156728 216.69256028 C-220.30456712 156.77972625 -198.09237237 102.93644324 -155.91911507 60.25531673 C-148.95491846 53.33287093 -141.71251214 47.09526499 -133.73161507 41.38031673 C-133.07532112 40.9067474 -132.41902718 40.43317806 -131.74284554 39.94525814 C-92.30140984 11.79399134 -47.98310368 -0.14444713 0 0 Z " fill="#FFFFFF" transform="translate(219.73161506652832,-0.38031673431396484)"/>
<path d="M0 0 C1.32 0 2.64 0 4 0 C4.57621094 1.67255859 4.57621094 1.67255859 5.1640625 3.37890625 C7.09068747 8.50570701 9.69959707 13.16985041 12.375 17.9375 C16.92059766 26.14502331 21.32437561 34.41159905 25.625 42.75 C27.74490476 46.83599842 29.87060186 50.91894173 32 55 C32.66878174 56.28511475 32.66878174 56.28511475 33.35107422 57.59619141 C40.84903473 71.90314182 49.71788138 84.77002878 60.76953125 96.59375 C61.99461443 97.91538089 63.21023898 99.24695447 64.37841797 100.61914062 C70.04943664 107.27709976 76.28350828 113.35960641 82.5 119.5 C95.31836898 132.16145511 95.31836898 132.16145511 100.54589844 138.29638672 C102.74625692 140.87430839 105.06493551 143.33247581 107.375 145.8125 C111.62485297 150.41178532 115.63576503 155.1508794 119.5625 160.03125 C122.42927387 163.52283355 125.39808395 166.91495633 128.375 170.3125 C133.96235357 176.71979388 139.29436675 183.27414367 144.46875 190.01806641 C146.11910125 192.15415561 147.7934306 194.27016484 149.46875 196.38671875 C161.93328929 212.27977417 172.98088106 229.0893794 184 246 C184.96824707 247.4835498 184.96824707 247.4835498 185.95605469 248.99707031 C223.9854327 307.52237392 251.8933374 371.98146668 274 438 C274.22582764 438.67041321 274.45165527 439.34082642 274.68432617 440.03155518 C293.03242118 494.54896371 304.59378774 551.55331245 308 609 C308.05639648 609.86254395 308.11279297 610.72508789 308.17089844 611.61376953 C313.72032682 698.2866466 302.38674302 786.43423767 247 934 C246.53271484 934.97839844 246.06542969 935.95679688 245.58398438 936.96484375 C238.14684986 952.44293967 229.83597955 967.28215944 221 982 C220.06473443 983.57790591 219.12981384 985.15601637 218.1953125 986.734375 C204.30460622 1010.01262988 188.50007534 1032.37540083 171.34179688 1053.35839844 C170.11284554 1054.8619408 168.89194517 1056.37205448 167.671875 1057.8828125 C159.00335483 1068.57814494 150.04002955 1079.00189069 140.66796875 1089.0859375 C138.69645459 1091.23930435 136.78788143 1093.41245864 134.890625 1095.62890625 C130.51062608 1100.65227135 125.80460605 1105.34554218 121.0847168 1110.0456543 C119.56508332 1111.5599258 118.05087483 1113.0794743 116.53710938 1114.59960938 C111.19726726 1119.94348757 105.76517717 1125.1128006 100 1130 C98.88183723 1130.97283851 97.76461945 1131.94676444 96.6484375 1132.921875 C88.62421091 1139.87192577 80.41681863 1146.5321874 72 1153 C71.1352002 1153.66902344 71.1352002 1153.66902344 70.25292969 1154.3515625 C68.58980269 1155.63623655 66.92119577 1156.91334693 65.25 1158.1875 C63.80367187 1159.29158203 63.80367187 1159.29158203 62.328125 1160.41796875 C60 1162 60 1162 58 1162 C58 1161.34 58 1160.68 58 1160 C57.195625 1159.835 56.39125 1159.67 55.5625 1159.5 C42.70987844 1154.08836987 35.47390949 1140.22663881 30.3125 1127.9375 C19.56711753 1101.04483606 16.11184342 1072.56358951 13 1044 C12.89034912 1043.03634521 12.78069824 1042.07269043 12.66772461 1041.07983398 C11.87527711 1033.4897928 11.88611131 1025.93779083 11.9375 1018.3125 C11.94426758 1016.38374023 11.94426758 1016.38374023 11.95117188 1014.41601562 C11.96283999 1011.27729347 11.97920985 1008.13867272 12 1005 C11.34 1005 10.68 1005 10 1005 C8.11512485 1014.45748524 7.41126685 1023.8790029 6.79699707 1033.47998047 C4.71567289 1065.48717169 0.54087701 1096.85403668 -5.17578125 1128.41015625 C-5.69239991 1131.26696265 -6.19545813 1134.12515034 -6.67578125 1136.98828125 C-8.95571321 1150.56490837 -11.86978985 1162.12811163 -19 1174 C-24.33001125 1170.05591479 -29.55159246 1166.00586271 -34.6875 1161.8125 C-35.37666504 1161.25079102 -36.06583008 1160.68908203 -36.77587891 1160.11035156 C-45.94817089 1152.61439688 -54.99053995 1144.99631832 -63.7578125 1137.02734375 C-65.71208424 1135.26032801 -67.69059737 1133.53086471 -69.6875 1131.8125 C-82.5290225 1120.60535309 -95.30069186 1108.85064355 -106.359375 1095.859375 C-108.16147789 1093.81699172 -110.05938947 1091.91098289 -112 1090 C-115.21434731 1086.8288397 -118.21750963 1083.54417247 -121.16015625 1080.12109375 C-123.19508819 1077.77508942 -125.28290967 1075.4826355 -127.375 1073.1875 C-131.20036325 1068.94423992 -134.8509409 1064.59140503 -138.44140625 1060.1484375 C-140.32262409 1057.82188546 -142.23129752 1055.52033191 -144.15234375 1053.2265625 C-161.45550878 1032.51771086 -177.29567071 1010.6237396 -192 988 C-192.46374023 987.28650391 -192.92748047 986.57300781 -193.40527344 985.83789062 C-201.39943587 973.48084863 -208.86074824 960.86820169 -216 948 C-216.57621094 946.96794434 -217.15242187 945.93588867 -217.74609375 944.87255859 C-262.98509758 863.50315681 -280.2520005 779.18117542 -262.15109253 421.33894348 C-238.88617386 340.85278103 -203.19144904 261.36463544 -153.29101562 193.76220703 C-151.80751946 191.73726843 -150.34835278 189.69590805 -148.890625 187.65234375 C-135.87065857 169.42516162 -122.07014021 151.63631605 -106.9296875 135.109375 C-105.14829604 133.16210498 -103.4124023 131.18475529 -101.6875 129.1875 C-93.04973315 119.32410407 -84.00705862 109.90537033 -74.75 100.625 C-74.27859589 100.15100769 -73.80719177 99.67701538 -73.32150269 99.18865967 C-68.27773206 94.12306877 -63.19240238 89.17412339 -57.76513672 84.52001953 C-55.17442467 82.28906888 -52.6892402 79.95529227 -50.1875 77.625 C-46.44244226 74.1542165 -42.63279508 70.85714058 -38.625 67.6875 C-19.73232142 52.40907298 -4.61161653 33.79097841 -1.875 9 C-1.79926758 8.23276611 -1.72353516 7.46553223 -1.64550781 6.67504883 C-1.09147488 1.09147488 -1.09147488 1.09147488 0 0 Z " fill="#6CAC48" transform="translate(941,139)"/>
<path d="M0 0 C3.02121125 3.68681059 5.31338006 7.23596506 7.46875 11.49609375 C7.94442917 12.42872795 7.94442917 12.42872795 8.42971802 13.38020325 C9.10712422 14.70910275 9.78212279 16.03923189 10.45489502 17.3704834 C12.22532009 20.8720436 14.01505 24.36369881 15.8046875 27.85546875 C16.33973404 28.90047043 16.33973404 28.90047043 16.8855896 29.96658325 C21.31101045 38.58810689 25.95696093 47.08828311 30.66040039 55.56079102 C31.60887812 57.287826 32.54142451 59.02365473 33.46264648 60.76538086 C36.53605399 66.54597091 39.81658441 71.87832355 43.8125 77.0625 C44.33094482 77.74441406 44.84938965 78.42632812 45.38354492 79.12890625 C48.97817754 83.80585933 52.7397221 88.28241725 56.76953125 92.59375 C57.99461443 93.91538089 59.21023898 95.24695447 60.37841797 96.61914062 C66.04943664 103.27709976 72.28350828 109.35960641 78.5 115.5 C91.31836898 128.16145511 91.31836898 128.16145511 96.54589844 134.29638672 C98.74625692 136.87430839 101.06493551 139.33247581 103.375 141.8125 C107.62485297 146.41178532 111.63576503 151.1508794 115.5625 156.03125 C118.42927387 159.52283355 121.39808395 162.91495633 124.375 166.3125 C129.96235357 172.71979388 135.29436675 179.27414367 140.46875 186.01806641 C142.11910125 188.15415561 143.7934306 190.27016484 145.46875 192.38671875 C157.93328929 208.27977417 168.98088106 225.0893794 180 242 C180.64549805 242.9890332 181.29099609 243.97806641 181.95605469 244.99707031 C219.9854327 303.52237392 247.8933374 367.98146668 270 434 C270.22582764 434.67041321 270.45165527 435.34082642 270.68432617 436.03155518 C289.03242118 490.54896371 300.59378774 547.55331245 304 605 C304.05639648 605.86254395 304.11279297 606.72508789 304.17089844 607.61376953 C309.72032682 694.2866466 298.38674302 782.43423767 243 930 C242.53271484 930.97839844 242.06542969 931.95679688 241.58398438 932.96484375 C234.14684986 948.44293967 225.83597955 963.28215944 217 978 C216.06473443 979.57790591 215.12981384 981.15601637 214.1953125 982.734375 C200.30460622 1006.01262988 184.50007534 1028.37540083 167.34179688 1049.35839844 C166.11284554 1050.8619408 164.89194517 1052.37205448 163.671875 1053.8828125 C155.00335483 1064.57814494 146.04002955 1075.00189069 136.66796875 1085.0859375 C134.69645459 1087.23930435 132.78788143 1089.41245864 130.890625 1091.62890625 C126.51062608 1096.65227135 121.80460605 1101.34554218 117.0847168 1106.0456543 C115.56508332 1107.5599258 114.05087483 1109.0794743 112.53710938 1110.59960938 C107.19726726 1115.94348757 101.76517717 1121.1128006 96 1126 C94.88183723 1126.97283851 93.76461945 1127.94676444 92.6484375 1128.921875 C84.62421091 1135.87192577 76.41681863 1142.5321874 68 1149 C67.1352002 1149.66902344 67.1352002 1149.66902344 66.25292969 1150.3515625 C64.58980269 1151.63623655 62.92119577 1152.91334693 61.25 1154.1875 C59.80367187 1155.29158203 59.80367187 1155.29158203 58.328125 1156.41796875 C56 1158 56 1158 54 1158 C54 1157.34 54 1156.68 54 1156 C53.195625 1155.835 52.39125 1155.67 51.5625 1155.5 C38.70987844 1150.08836987 31.47390949 1136.22663881 26.3125 1123.9375 C15.58118594 1097.08004533 12.0194568 1068.5479128 9 1040 C8.87586516 1038.91534164 8.87586516 1038.91534164 8.74922255 1037.80877098 C7.8490632 1029.1876439 7.80730716 1020.58282307 7.75201321 1011.9260025 C7.73759202 1010.19644632 7.72277028 1008.46689344 7.70758644 1006.73734379 C7.66703572 1001.98635484 7.63216322 997.23533866 7.59822015 992.48429853 C7.56027757 987.31468735 7.51702655 982.14512013 7.47445017 976.97554541 C7.40056359 967.91547889 7.33006786 958.85539091 7.26179123 949.79528046 C7.16024433 936.32221424 7.05346547 922.84919303 6.94561912 909.37617595 C6.76431582 886.70742088 6.58727675 864.0386349 6.41270256 841.36982727 C6.2397317 818.91065365 6.06493188 796.4514955 5.8876667 773.99235535 C5.88215866 773.29438105 5.87665062 772.59640675 5.87097566 771.87728172 C5.82066415 765.50190253 5.77033183 759.1265235 5.71997381 752.75114468 C5.59478321 736.90171278 5.46988864 721.05227857 5.34520054 705.20284271 C5.33668306 704.12020174 5.33668306 704.12020174 5.3279935 703.01568923 C5.05182445 667.9089154 4.77909282 632.80211496 4.5065918 597.6953125 C4.12793473 548.91274039 3.74694091 500.13018736 3.36303711 451.34765625 C3.35109671 449.83031132 3.33915639 448.31296639 3.32721614 446.79562146 C3.23211473 434.71043613 3.13700266 422.62525088 3.0418709 410.54006578 C2.63116023 358.36469942 2.22208751 306.18932021 1.8135656 254.01393667 C1.75861178 246.99539605 1.70364996 239.9768555 1.64866456 232.95831513 C1.39523236 200.60901451 1.14227341 168.25971035 0.89112847 135.91039187 C0.79629214 123.69560154 0.70125016 111.48081292 0.60554504 99.26602936 C0.52617584 89.13585478 0.44730883 79.00567646 0.36911943 68.87549271 C0.32976604 63.77855454 0.29018822 58.6816184 0.24995982 53.58468705 C0.21328972 48.93772901 0.17731646 44.29076609 0.14187387 39.64379853 C0.1290901 37.98294278 0.11606536 36.32208885 0.10275406 34.66123724 C0.01034504 23.10727695 -0.01409316 11.55431883 0 0 Z " fill="#599636" transform="translate(945,143)"/>
<path d="M0 0 C0.87560577 -0.00708481 1.75121155 -0.01416962 2.65335083 -0.02146912 C3.61683945 -0.0189917 4.58032806 -0.01651428 5.57301331 -0.01396179 C6.58641785 -0.01907272 7.59982239 -0.02418365 8.64393616 -0.02944946 C12.0156181 -0.04341549 15.38709676 -0.04238103 18.75880432 -0.04008484 C21.10939611 -0.0439728 23.45998721 -0.04830768 25.81057739 -0.05307007 C30.75631474 -0.06055082 35.70198078 -0.06023114 40.64772034 -0.05497742 C46.93697501 -0.04923224 53.22593042 -0.0659837 59.51513577 -0.08932209 C64.38242253 -0.10418905 69.24963981 -0.10491278 74.11694527 -0.10181236 C76.43180488 -0.10232082 78.74666888 -0.10746766 81.06150627 -0.11762428 C112.71667163 -0.2392797 140.47518627 4.52395826 164.00099182 27.37397766 C179.72405117 44.0740038 187.59951107 66.89027179 187.22950745 89.68086243 C186.08459085 118.24719703 178.30009923 142.83164889 157.13771057 162.88569641 C113.34029009 200.67699913 48.35557046 190.55698129 -5.17478943 189.26069641 C-5.03786447 187.81159942 -4.89414849 186.36314296 -4.74754333 184.91499329 C-4.66823578 184.10832214 -4.58892822 183.301651 -4.50721741 182.47053528 C-4.06997201 179.56391506 -3.44506552 178.15420328 -1.17478943 176.26069641 C1.78614807 175.35444641 1.78614807 175.35444641 5.20021057 174.76069641 C10.1806198 173.89055595 13.16576409 172.82699335 16.82521057 169.26069641 C19.6120524 160.90017092 18.9719741 151.22277999 18.9546051 142.48799133 C18.95635742 141.37891922 18.95810974 140.26984711 18.95991516 139.12716675 C18.96427901 135.49848314 18.96141445 131.86984918 18.95802307 128.24116516 C18.95869782 125.6935017 18.95966928 123.14583829 18.96092224 120.59817505 C18.96239194 115.27172673 18.96036584 109.9452958 18.95558167 104.61885071 C18.95014947 98.50112639 18.95189833 92.38343546 18.95740807 86.26571196 C18.9625325 80.33370708 18.96193945 74.40171236 18.95902634 68.46970558 C18.95836411 65.96733406 18.95916059 63.46496168 18.96150589 60.96259117 C18.96704233 53.39427077 18.93055727 45.82830227 18.82521057 38.26069641 C18.81732262 37.43463017 18.80943466 36.60856392 18.80130768 35.75746536 C18.77194685 33.64362315 18.70922036 31.5345255 18.62940979 29.42207336 C18.59580353 28.32627457 18.56219727 27.23047577 18.52757263 26.10147095 C17.58784966 22.30066616 15.79579365 20.73251786 12.82521057 18.26069641 C10.08252883 17.10718685 10.08252883 17.10718685 7.13771057 16.57319641 C6.09743713 16.34632141 5.0571637 16.11944641 3.98536682 15.88569641 C2.94251526 15.67944641 1.8996637 15.47319641 0.82521057 15.26069641 C-0.16607849 15.05444641 -1.15736755 14.84819641 -2.17869568 14.63569641 C-4.50766394 14.1586389 -6.83846528 13.7000494 -9.17478943 13.26069641 C-10.17478943 10.26069641 -10.17478943 10.26069641 -9.46775818 8.28804016 C-9.10295349 7.59839172 -8.7381488 6.90874329 -8.36228943 6.19819641 C-8.00521912 5.50596985 -7.6481488 4.81374329 -7.28025818 4.10054016 C-5.19490796 0.62986895 -3.91385761 0.01053677 0 0 Z " fill="#C2BFBF" transform="translate(1200.174789428711,1536.7393035888672)"/>
<path d="M0 0 C1.37625801 0.00959244 1.37625801 0.00959244 2.78031921 0.01937866 C5.82310104 0.04221365 8.86574276 0.0728263 11.90844727 0.10424805 C14.02775411 0.12348616 16.14706262 0.14254178 18.26637268 0.16142273 C22.71766469 0.20245471 27.16889231 0.24766896 31.62011719 0.29541016 C37.29891279 0.35571201 42.97773011 0.40278259 48.65667629 0.44624043 C53.03991485 0.48178879 57.42303564 0.52600533 61.80616951 0.57259178 C63.8979115 0.59351481 65.98968571 0.61145249 68.08148003 0.6262455 C87.95838994 0.7736095 106.04365712 1.63302171 121.16235352 16.0847168 C129.76584508 25.06777417 132.35024384 34.81758653 132.16674805 47.06811523 C131.45537487 57.98299577 126.11112261 67.54047386 118.16235352 74.8034668 C114.36059195 77.95202994 110.30837025 80.5885449 106.03735352 83.0534668 C106.85977539 83.34479492 107.68219727 83.63612305 108.52954102 83.9362793 C124.70915949 89.87752488 136.55199865 97.37303898 144.07250977 113.23706055 C148.72236469 125.0239021 146.25562874 139.62037368 141.97485352 151.1784668 C139.11944368 157.59267189 135.02985958 162.19277607 130.03735352 167.0534668 C129.0202832 168.10147461 129.0202832 168.10147461 127.98266602 169.1706543 C107.75619112 188.78651863 77.9454764 191.14681868 51.27172852 191.1081543 C50.33505341 191.10738892 49.3983783 191.10662354 48.43331909 191.10583496 C35.6743205 191.07212182 22.91856183 190.80316136 10.16235352 190.5534668 C7.61287794 190.50510012 5.06339878 190.45692197 2.51391602 190.40893555 C-3.64498101 190.29261133 -9.80383028 190.17399044 -15.96264648 190.0534668 C-16.11238678 181.03696188 -16.11238678 181.03696188 -12.96264648 177.0534668 C-10.53979165 176.23687498 -8.19748311 175.84503464 -5.66967773 175.4675293 C-0.4878855 174.67493193 4.52036122 173.80748914 8.03735352 169.7409668 C10.31881014 163.60955213 10.20321659 157.38409135 10.24267578 150.9309082 C10.25257538 149.92495102 10.26247498 148.91899384 10.27267456 147.8825531 C10.30424262 144.55673556 10.32906495 141.23090442 10.35375977 137.9050293 C10.37436927 135.57212998 10.39536667 133.23923406 10.41673279 130.90634155 C10.46067795 126.00553294 10.50158316 121.10471215 10.54003906 116.20385742 C10.58878779 109.99151697 10.64239058 103.77923219 10.69801426 97.56694984 C10.7515142 91.5754898 10.80282678 85.58401164 10.85375977 79.5925293 C10.86331758 78.48076954 10.8728754 77.36900978 10.88272285 76.22356033 C10.93637368 69.87563295 10.97959627 63.52775105 11.01463699 57.17969513 C11.03804998 53.95762012 11.07789058 50.73599464 11.11886597 47.51409912 C11.137542 45.39099431 11.15587513 43.26788644 11.17382812 41.14477539 C11.1898964 40.19061045 11.20596468 39.2364455 11.22251987 38.25336647 C11.26201069 31.65545751 10.42101079 25.50108446 9.03735352 19.0534668 C1.09506679 16.71088789 -6.75569538 15.16251424 -14.96264648 14.0534668 C-15.99413106 10.27135669 -16.04501611 8.28231348 -14.21264648 4.8034668 C-13.69444336 3.77479492 -13.69444336 3.77479492 -13.16577148 2.7253418 C-10.25663703 -1.31722167 -4.47315027 -0.05052164 0 0 Z " fill="#C2BFBF" transform="translate(1416.962646484375,1536.946533203125)"/>
<path d="M0 0 C9.66625789 3.00807287 20.70256165 4.5810353 30.1484375 -0.21484375 C31.51354429 -1.15044133 32.82605829 -2.16201971 34.125 -3.1875 C34.785 -3.1875 35.445 -3.1875 36.125 -3.1875 C38.096597 2.727291 37.5647808 8.37512302 35.15625 14.05078125 C33.34260193 17.14909671 31.34714498 18.32076621 28.125 19.8125 C23.15448862 20.91705808 19.09251713 20.86254009 14.125 19.8125 C14.1564209 20.80092896 14.1564209 20.80092896 14.18847656 21.80932617 C14.66601866 39.11720469 14.91710882 54.29446458 2.3828125 67.671875 C-9.79854043 79.09505244 -24.48670771 83.61473886 -40.81640625 85.125 C-44.43615645 85.93863478 -46.24236824 87.23280965 -48.875 89.8125 C-49.70833333 92.3125 -49.70833333 92.3125 -48.875 94.8125 C-44.14475125 100.52142091 -36.04210758 100.48215019 -29.12768555 101.20336914 C-24.25559698 101.6465524 -19.37904207 102.03690845 -14.50146484 102.41430664 C17.59527267 104.93031735 17.59527267 104.93031735 26.9609375 114.734375 C32.3831285 121.55840074 34.67977122 127.87179314 34.5625 136.5 C34.55420166 137.29019531 34.54590332 138.08039063 34.53735352 138.89453125 C34.10175189 154.12353616 26.71429247 165.01963634 15.984375 175.359375 C7.11569816 182.96802125 -2.69053528 188.36800905 -13.875 191.8125 C-14.88046875 192.13089844 -15.8859375 192.44929688 -16.921875 192.77734375 C-34.86977776 197.52697167 -57.09615576 197.20258145 -73.4375 187.875 C-74.93440639 186.88036138 -76.41606956 185.86205071 -77.875 184.8125 C-79.48375 183.6678125 -79.48375 183.6678125 -81.125 182.5 C-88.40265941 175.38774194 -92.05711289 167.3555969 -93.3125 157.3125 C-92.1411506 147.94170476 -88.1276484 141.67655594 -80.875 135.8125 C-74.97215215 131.3440523 -68.94216733 127.05407921 -62.875 122.8125 C-64.86272736 121.31704574 -66.85133228 119.82941873 -68.875 118.3828125 C-74.34268282 114.43155734 -79.01691319 110.56917931 -80.875 103.8125 C-80.8125 101.25 -80.8125 101.25 -79.875 98.8125 C-75.8083435 95.17432263 -71.19427533 92.41027607 -66.5625 89.5625 C-65.45165039 88.87414063 -65.45165039 88.87414063 -64.31835938 88.171875 C-62.5056939 87.04919187 -60.69059216 85.93044394 -58.875 84.8125 C-61.70976415 82.82889814 -61.70976415 82.82889814 -64.29296875 81.62109375 C-75.40166339 76.12158484 -81.92078325 68.31122498 -85.953125 56.7109375 C-88.98141228 45.74323294 -88.50902302 30.74663404 -82.875 20.8125 C-74.4169103 6.67283636 -60.27523938 -0.55753361 -44.8125 -4.625 C-28.76184141 -8.42438453 -15.22911387 -4.88548541 0 0 Z " fill="#47474A" transform="translate(971.875,1606.1875)"/>
<path d="M0 0 C1.26529541 0.00491455 2.53059082 0.0098291 3.83422852 0.01489258 C26.27397339 0.29526358 46.4585823 6.24058728 62.8515625 22.1875 C80.04286653 39.95828619 84.21437309 63.3632146 83.96484375 87.13671875 C83.43848244 108.46252494 76.25429718 128.21986761 61.42578125 143.8359375 C48.92582119 155.4052436 33.50750617 160.14874587 16.75 160.3125 C5.97093725 159.80201129 -7.48130943 158.56673374 -15.25 150.3125 C-17.97125549 145.74850825 -18.63578244 142.35472562 -18.68237305 137.06860352 C-18.69764778 136.01319886 -18.69764778 136.01319886 -18.71323109 134.93647289 C-18.74338911 132.60470312 -18.75264106 130.27334582 -18.76171875 127.94140625 C-18.77876779 126.28239667 -18.79706501 124.62339951 -18.81652832 122.9644165 C-18.86479232 118.52020429 -18.89460227 114.07605043 -18.9201622 109.63165665 C-18.94326877 105.95778282 -18.9762855 102.28402689 -19.00946522 98.61023235 C-19.09235774 89.42462561 -19.15576334 80.23901095 -19.2061739 71.05317211 C-19.23703963 65.43578458 -19.2739899 59.81848345 -19.31640625 54.20117188 C-19.36505204 47.67954905 -19.40104939 41.15797239 -19.42422485 34.63619995 C-19.43302977 32.30735095 -19.44453726 29.9785105 -19.45883179 27.64968872 C-19.47635493 24.46039015 -19.48059813 21.2713714 -19.48046875 18.08203125 C-19.48759888 17.16705872 -19.494729 16.25208618 -19.5020752 15.30938721 C-19.4853366 10.64300148 -19.35115397 6.58829228 -17.25 2.3125 C-12.61306912 -1.27498622 -5.54885589 -0.02489894 0 0 Z " fill="#FFFFFF" transform="translate(1270.25,1551.6875)"/>
<path d="M0 0 C14.28031567 12.32027235 20.79033945 27.28634881 22.32080078 45.90917969 C23.41857931 65.06288879 18.34261508 82.94095932 5.55126953 97.38134766 C-5.23124565 108.7735548 -22.12648895 116.60236866 -37.82421875 117.1953125 C-61.03256015 117.50971335 -61.03256015 117.50971335 -71.84765625 112.859375 C-72.66621094 112.50875 -73.48476563 112.158125 -74.328125 111.796875 C-88.43168328 104.80578243 -97.35830676 92.18997766 -102.84765625 77.859375 C-108.58627074 60.38561628 -107.8195572 39.36395458 -100.22265625 22.671875 C-96.96081339 16.54479052 -92.76111216 11.72037408 -87.84765625 6.859375 C-87.32945312 6.30765625 -86.81125 5.7559375 -86.27734375 5.1875 C-64.29192815 -16.22238116 -24.06243027 -18.08808202 0 0 Z " fill="#47474A" transform="translate(669.84765625,1612.140625)"/>
<path d="M0 0 C12.24756154 13.09504906 18.17616843 28.24230352 18.0625 46.05859375 C18.05512817 47.43615845 18.05512817 47.43615845 18.04760742 48.84155273 C17.74288285 66.68278576 12.1865936 82.83573405 -0.25 95.87109375 C-17.04220986 110.87115256 -36.86923587 115.10960537 -58.71875 114.05126953 C-73.5998608 112.9920238 -86.29063535 105.78435858 -96.25 94.87109375 C-98.61812584 91.68516174 -100.48333685 88.4207277 -102.25 84.87109375 C-102.69988281 84.01902344 -103.14976563 83.16695312 -103.61328125 82.2890625 C-111.89539727 65.60267535 -113.06873989 44.57580054 -107.25 26.87109375 C-100.21887474 9.20753517 -88.23035201 -1.68852116 -71.11425781 -9.35351562 C-48.31386114 -18.83676076 -18.84472821 -17.44043356 0 0 Z " fill="#47474A" transform="translate(1139.25,1615.12890625)"/>
<path d="M0 0 C9.19875402 8.38155264 13.40231043 21.25897504 14.375 33.375 C14.51448671 37.70049166 14.5526061 42.02451324 14.57423019 46.35207558 C14.58614064 48.52534808 14.60561589 50.69843248 14.62734985 52.87162781 C14.68860989 59.04431964 14.74317518 65.21698025 14.77636719 71.38989258 C14.79728201 75.17940703 14.83253671 78.96855735 14.87712479 82.757864 C14.89128598 84.19833291 14.90000751 85.63886599 14.90317917 87.07940102 C14.90807454 89.08727378 14.9328185 91.09506867 14.95849609 93.1027832 C14.96658295 94.24447464 14.9746698 95.38616608 14.98300171 96.56245422 C15.15265155 99.35684608 15.15265155 99.35684608 16.66397095 101.1940155 C19.62136122 103.235262 23.10671479 103.78683467 26.5625 104.5625 C27.31208984 104.73974609 28.06167969 104.91699219 28.83398438 105.09960938 C30.67874819 105.53436263 32.52660066 105.95597276 34.375 106.375 C35.23808802 110.80062155 35.573448 113.32522736 33.375 117.375 C30.72222045 118.70138978 28.71833079 118.50212356 25.74780273 118.50439453 C24.56995712 118.50754669 23.39211151 118.51069885 22.17857361 118.51394653 C20.26293358 118.51091019 20.26293358 118.51091019 18.30859375 118.5078125 C17.00422867 118.50876923 15.69986359 118.50972595 14.35597229 118.51071167 C11.59448056 118.51218677 8.83302117 118.51003978 6.0715332 118.50537109 C2.52480979 118.49966831 -1.02183804 118.50295745 -4.56855869 118.50894356 C-7.94284735 118.51341648 -11.31711544 118.51028929 -14.69140625 118.5078125 C-16.61008263 118.51084885 -16.61008263 118.51084885 -18.56752014 118.51394653 C-19.74221359 118.51079437 -20.91690704 118.50764221 -22.12719727 118.50439453 C-23.68701073 118.50320114 -23.68701073 118.50320114 -25.27833557 118.50198364 C-27.625 118.375 -27.625 118.375 -28.625 117.375 C-28.69705511 115.68891034 -28.70886068 113.99999341 -28.6875 112.3125 C-28.67847656 111.39339844 -28.66945313 110.47429687 -28.66015625 109.52734375 C-28.64275391 108.46193359 -28.64275391 108.46193359 -28.625 107.375 C-24.66154498 105.84524543 -20.81463371 104.38537713 -16.6875 103.375 C-15.1715625 102.88 -15.1715625 102.88 -13.625 102.375 C-11.03836121 94.61508363 -11.46696534 85.80665162 -11.45703125 77.6953125 C-11.45370285 76.72069061 -11.45037445 75.74606873 -11.44694519 74.74191284 C-11.44192189 72.69659898 -11.43953543 70.65127706 -11.43969727 68.60595703 C-11.43751026 65.51450841 -11.41930344 62.42341706 -11.40039062 59.33203125 C-10.62735083 38.2119007 -10.62735083 38.2119007 -19.125 19.6640625 C-24.41514871 14.64331952 -30.63062743 12.34881053 -37.875 11.9375 C-47.4000312 12.32049951 -57.52805758 15.91540435 -64.625 22.375 C-65.79988141 25.89964423 -65.72617068 28.63298887 -65.69433594 32.35327148 C-65.68954727 33.05929504 -65.68475861 33.7653186 -65.67982483 34.49273682 C-65.66213685 36.82728081 -65.63639193 39.16164013 -65.609375 41.49609375 C-65.59268132 43.11890125 -65.57601915 44.74170908 -65.55938721 46.36451721 C-65.52291449 49.76658927 -65.481688 53.16857024 -65.43798828 56.57055664 C-65.38299451 60.9296011 -65.34646087 65.28859196 -65.31435776 69.64785671 C-65.28649246 72.99972472 -65.24543757 76.35133801 -65.20075226 79.7030201 C-65.18155986 81.31011986 -65.16726237 82.91728581 -65.15795135 84.52447319 C-65.14361895 86.77251914 -65.11071024 89.01957089 -65.07324219 91.26733398 C-65.05912292 92.54624008 -65.04500366 93.82514618 -65.03045654 95.14280701 C-64.59829475 98.58788721 -64.10204957 99.98634642 -61.625 102.375 C-59.01425865 103.29945923 -56.61599886 104.01477244 -53.9375 104.625 C-53.23560547 104.79773437 -52.53371094 104.97046875 -51.81054688 105.1484375 C-50.08531723 105.57094272 -48.35554549 105.97482466 -46.625 106.375 C-45.75983472 110.87385947 -45.31596728 113.39147791 -47.625 117.375 C-55.69152174 117.39812737 -63.75802972 117.41591709 -71.82457638 117.42681217 C-75.56983037 117.43204014 -79.31506176 117.43913622 -83.06030273 117.45043945 C-86.67181687 117.46127141 -90.28330921 117.46727749 -93.89483833 117.46987724 C-95.27560329 117.47173094 -96.656367 117.47535049 -98.03712273 117.48073006 C-99.96475952 117.48794447 -101.89241807 117.48840809 -103.82006836 117.48852539 C-104.91927109 117.490746 -106.01847382 117.49296661 -107.15098572 117.49525452 C-109.625 117.375 -109.625 117.375 -110.625 116.375 C-110.69679964 114.85571962 -110.70892007 113.33332518 -110.6875 111.8125 C-110.67847656 110.98621094 -110.66945313 110.15992188 -110.66015625 109.30859375 C-110.64855469 108.67050781 -110.63695312 108.03242187 -110.625 107.375 C-106.44789892 105.0096536 -102.07211662 104.35546639 -97.40234375 103.44921875 C-93.82522864 102.06566509 -93.28057591 100.78647187 -91.625 97.375 C-89.493163 85.46232713 -90.50788805 72.58001245 -90.70214844 60.5402832 C-90.73412431 58.29985157 -90.75523289 56.05923922 -90.765625 53.81860352 C-90.31144264 34.71217149 -90.31144264 34.71217149 -98.59985352 18.11865234 C-103.61278072 13.18881233 -108.78940255 11.41839657 -115.75 11 C-125.80738551 11.25788168 -135.65799359 15.29880261 -143.2734375 21.77734375 C-146.26540133 25.31408713 -145.75150533 29.74663159 -145.75439453 34.17553711 C-145.75614685 34.85083969 -145.75789917 35.52614227 -145.75970459 36.22190857 C-145.76409684 38.44874663 -145.76119404 40.67550491 -145.7578125 42.90234375 C-145.75848637 44.45406611 -145.7594571 46.00578837 -145.76071167 47.55751038 C-145.76218515 50.80812588 -145.7600456 54.05871387 -145.75537109 57.30932617 C-145.74967877 61.4699037 -145.75295187 65.63041664 -145.75894356 69.79099178 C-145.76256265 72.99520857 -145.7614043 76.19941014 -145.75881577 79.4036274 C-145.75814998 80.93738373 -145.75896271 82.47114146 -145.76129532 84.00489616 C-145.76384344 86.15165729 -145.75995065 88.29831491 -145.75439453 90.44506836 C-145.75359894 91.66544296 -145.75280334 92.88581757 -145.75198364 94.14317322 C-145.63911489 97.01576562 -145.28899805 99.58506712 -144.625 102.375 C-143.48160156 102.65214844 -142.33820313 102.92929688 -141.16015625 103.21484375 C-139.66922535 103.58054378 -138.17834239 103.94643929 -136.6875 104.3125 C-135.93275391 104.49490234 -135.17800781 104.67730469 -134.40039062 104.86523438 C-128.73828125 106.26171875 -128.73828125 106.26171875 -127.625 107.375 C-127.45703125 109.37109375 -127.45703125 109.37109375 -127.4375 111.8125 C-127.42332031 112.61558594 -127.40914063 113.41867187 -127.39453125 114.24609375 C-127.625 116.375 -127.625 116.375 -129.625 118.375 C-132.18130493 118.61550903 -132.18130493 118.61550903 -135.45166016 118.60205078 C-137.28333237 118.60182419 -137.28333237 118.60182419 -139.15200806 118.60159302 C-140.48936118 118.59137903 -141.82671265 118.58094702 -143.1640625 118.5703125 C-144.52883701 118.5665828 -145.89361419 118.56373563 -147.25839233 118.56173706 C-150.85220723 118.55409714 -154.44586073 118.53444572 -158.03961182 118.5123291 C-161.70607317 118.49187832 -165.37256057 118.482737 -169.0390625 118.47265625 C-176.23444862 118.45120003 -183.4297017 118.41705992 -190.625 118.375 C-192.93403272 114.39147791 -192.49016528 111.87385947 -191.625 107.375 C-188.79984191 106.40849855 -186.02405474 105.46285391 -183.10546875 104.8203125 C-181.78482422 104.50707031 -181.78482422 104.50707031 -180.4375 104.1875 C-179.59832031 104.00832031 -178.75914062 103.82914063 -177.89453125 103.64453125 C-174.56441276 101.78172831 -173.71228596 98.87196552 -172.625 95.375 C-172.17073384 91.71196634 -172.17073384 91.71196634 -172.22094727 87.85083008 C-172.21065239 86.77628822 -172.21065239 86.77628822 -172.20014954 85.68003845 C-172.18198854 83.33466246 -172.18570127 80.98996178 -172.19140625 78.64453125 C-172.1868413 77.00501795 -172.18153479 75.36550656 -172.17552185 73.72599792 C-172.16661338 70.30073232 -172.16899029 66.87570021 -172.17895508 63.45043945 C-172.19047863 59.06200639 -172.17017072 54.67437396 -172.14103794 50.28604603 C-172.1226986 46.90511469 -172.12296319 43.52437641 -172.12867546 40.14340782 C-172.12882876 38.52508096 -172.12277734 36.90674109 -172.11038399 35.28846169 C-172.095507 33.02878913 -172.10612233 30.770612 -172.12329102 28.51098633 C-172.12345718 27.22638016 -172.12362335 25.94177399 -172.12379456 24.61824036 C-172.71273071 20.80730507 -173.60334573 19.68429932 -176.625 17.375 C-179.47051839 15.94248638 -179.47051839 15.94248638 -182.5625 14.8125 C-186.49509444 13.29613931 -190.16357977 11.80852084 -193.625 9.375 C-193.955 8.385 -194.285 7.395 -194.625 6.375 C-192.06532174 2.53548261 -190.71910989 2.64593168 -186.2890625 1.69140625 C-185.65447113 1.54976547 -185.01987976 1.40812469 -184.36605835 1.26219177 C-182.32969873 0.80914996 -180.29033945 0.37223553 -178.25 -0.0625 C-175.59449511 -0.63632361 -172.94096332 -1.21833884 -170.2890625 -1.80859375 C-169.63987854 -1.95227386 -168.99069458 -2.09595398 -168.32183838 -2.24398804 C-163.10630153 -3.43382285 -158.11087083 -5.0377648 -153.09130859 -6.87524414 C-150.625 -7.625 -150.625 -7.625 -146.625 -7.625 C-145.63249455 -1.91809366 -145.52022488 3.58908489 -145.625 9.375 C-141.91292647 8.02032558 -138.84137711 6.3208091 -135.5625 4.125 C-121.48407745 -4.97562672 -107.41650127 -10.57779578 -90.578125 -6.97265625 C-81.67489086 -3.75145508 -75.69795738 2.60703401 -70.625 10.375 C-66.36356411 8.88031726 -62.8392523 6.63533301 -59.125 4.125 C-40.53957371 -8.09207961 -19.19749505 -14.90331853 0 0 Z " fill="#47474A" transform="translate(506.625,1608.625)"/>
<path d="M0 0 C0.66 0 1.32 0 2 0 C2.01401855 0.98166138 2.01401855 0.98166138 2.02832031 1.9831543 C3.20363425 79.60567583 3.20363425 79.60567583 36.05859375 147.3125 C39.67485702 150.45581133 43.78242905 152.75968062 48 155 C47.08170148 159.29380889 44.95974939 162.69406557 42.75 166.4375 C36.09839455 178.06400134 32.2497411 189.23487746 30.36233521 202.47171021 C30.09611187 204.329354 29.80683845 206.18373176 29.50460815 208.03585815 C27.87508428 218.75585938 27.72399005 229.28191798 27.76953125 240.109375 C27.77072717 242.01214568 27.77117534 243.91491695 27.7709198 245.81768799 C27.77247198 249.77774835 27.78066531 253.73771668 27.79418945 257.69775391 C27.81122392 262.74638188 27.8150016 267.79490972 27.81424427 272.84356308 C27.81451744 276.76258277 27.82002148 280.68158105 27.82724571 284.60059357 C27.83040228 286.46152841 27.83239265 288.32246565 27.83313942 290.18340302 C27.82699836 303.06549041 27.82699836 303.06549041 28.77075195 315.90629578 C29.10499297 318.95889244 29.16885572 321.99365132 29.1875 325.0625 C29.20167969 326.14660156 29.21585938 327.23070312 29.23046875 328.34765625 C29 331 29 331 27 333 C22.70708516 333.78052997 19.70386119 332.07000459 15.9375 330.26953125 C13.56749445 329.24526024 11.25782398 328.38515693 8.8125 327.57421875 C8.06323242 327.32430176 7.31396484 327.07438477 6.54199219 326.81689453 C5.04128419 326.32294612 3.53677035 325.84037991 2.02832031 325.37060547 C1.32288086 325.13615723 0.61744141 324.90170898 -0.109375 324.66015625 C-0.73811523 324.46043213 -1.36685547 324.26070801 -2.01464844 324.05493164 C-5.02623249 322.45470357 -6.85638441 320.65317477 -9 318 C-9.61181641 314.69897461 -9.61181641 314.69897461 -9.6015625 310.90234375 C-9.60834518 310.20843033 -9.61512787 309.51451691 -9.62211609 308.79957581 C-9.63551784 307.29856882 -9.63852434 305.79744035 -9.63223267 304.29638672 C-9.61978656 300.23716953 -9.69759274 296.17955273 -9.76953125 292.12109375 C-9.78294052 291.28295135 -9.79634979 290.44480896 -9.81016541 289.58126831 C-10.5236933 251.52325472 -15.85915829 212.77428595 -27.25927734 176.44360352 C-27.50242676 175.64881592 -27.74557617 174.85402832 -27.99609375 174.03515625 C-28.21450928 173.3481665 -28.4329248 172.66117676 -28.65795898 171.95336914 C-29.4105274 167.65551052 -27.22281518 164.49881702 -25.25 160.8125 C-20.72709604 151.02540854 -19.20972099 140.63678192 -17.36584473 130.0770874 C-16.97341096 127.84904043 -16.57112444 125.62292664 -16.16699219 123.39697266 C-10.28165919 90.9244735 -6.12531832 58.6649744 -4.03808594 25.7265625 C-2.72404931 5.44809862 -2.72404931 5.44809862 0 0 Z " fill="#C2BFBF" transform="translate(951,1144)"/>
<path d="M0 0 C9.48588524 7.66536181 13.78732831 18.62171724 15.8125 30.375 C16.03670485 33.08768151 16.21938799 35.78291903 16.35546875 38.5 C16.41869576 39.72759033 16.41869576 39.72759033 16.48320007 40.97998047 C16.81871303 48.15215431 16.92146313 55.32094319 16.98828125 62.5 C17.00027557 63.63066895 17.0122699 64.76133789 17.02462769 65.92626953 C17.07329308 70.60939422 17.12096199 75.29222545 17.13842773 79.97558594 C17.15379939 83.44248646 17.19383926 86.90836684 17.23828125 90.375 C17.23541862 91.96852295 17.23541862 91.96852295 17.23249817 93.59423828 C17.24898911 94.57376465 17.26548004 95.55329102 17.2824707 96.5625 C17.28833694 97.42230469 17.29420319 98.28210937 17.30024719 99.16796875 C17.63392892 101.51927896 17.63392892 101.51927896 19.61613464 103.1027832 C22.74953494 104.91776561 26.07450358 105.71522677 29.5625 106.5625 C30.60857422 106.82836914 30.60857422 106.82836914 31.67578125 107.09960938 C33.38594679 107.53300749 35.09896044 107.95514018 36.8125 108.375 C36.86641993 110.16633978 36.90525571 111.95813899 36.9375 113.75 C36.96070313 114.74773437 36.98390625 115.74546875 37.0078125 116.7734375 C36.8125 119.375 36.8125 119.375 34.8125 121.375 C32.2182312 121.61550903 32.2182312 121.61550903 28.89404297 121.60205078 C27.65290741 121.60189972 26.41177185 121.60174866 25.13302612 121.60159302 C23.7735783 121.591379 22.4141321 121.580947 21.0546875 121.5703125 C19.66749271 121.56658284 18.28029529 121.56373565 16.89309692 121.56173706 C13.24009949 121.55409684 9.58726083 121.53444516 5.93432617 121.5123291 C2.20754138 121.49187896 -1.51926904 121.48273713 -5.24609375 121.47265625 C-12.55996825 121.45119951 -19.87371189 121.41705903 -27.1875 121.375 C-29.30982587 117.56655753 -29.4301639 114.74295019 -29.1875 110.375 C-28.8575 109.715 -28.5275 109.055 -28.1875 108.375 C-25.02186127 107.48548168 -21.86077289 106.73721241 -18.64648438 106.05078125 C-14.75999145 105.24555502 -14.75999145 105.24555502 -11.98858643 102.63806152 C-11.03952763 99.95697947 -10.93347687 97.81542479 -10.92871094 94.97070312 C-10.91925446 93.3475116 -10.91925446 93.3475116 -10.90960693 91.69152832 C-10.9136554 90.52488647 -10.91770386 89.35824463 -10.921875 88.15625 C-10.91996155 86.94739136 -10.9180481 85.73853271 -10.91607666 84.49304199 C-10.91471501 81.93090609 -10.91841004 79.36876329 -10.92675781 76.80664062 C-10.93738304 72.9178071 -10.92690014 69.02944342 -10.9140625 65.140625 C-10.91538555 62.64583232 -10.91795095 60.15103994 -10.921875 57.65625 C-10.91782654 56.505802 -10.91377808 55.355354 -10.90960693 54.17004395 C-10.97437959 42.79281976 -11.40936113 31.35357046 -19.1875 22.375 C-26.68299416 16.73714131 -34.00578661 15.70346511 -43.1875 16.375 C-49.89658363 17.64293694 -56.72081583 20.21607864 -62.1875 24.375 C-64.58390939 27.96476022 -64.44689772 31.24670487 -64.4621582 35.48266602 C-64.46726913 36.19044189 -64.47238007 36.89821777 -64.47764587 37.62744141 C-64.49151928 39.96134957 -64.49058729 42.29496182 -64.48828125 44.62890625 C-64.49216852 46.25268158 -64.49650326 47.87645589 -64.50126648 49.50022888 C-64.50872316 52.90049541 -64.50844077 56.30065807 -64.50317383 59.70092773 C-64.49737021 64.06138311 -64.51433412 68.42141496 -64.5375185 72.78180027 C-64.55223592 76.13350414 -64.55313045 79.48510541 -64.55000877 82.83683586 C-64.55052267 84.44482197 -64.55577328 86.05281371 -64.56582069 87.66076851 C-64.57813393 89.90637071 -64.57142581 92.15114003 -64.55981445 94.39672852 C-64.56044388 95.67483902 -64.5610733 96.95294952 -64.5617218 98.26979065 C-64.44075826 101.32756522 -64.44075826 101.32756522 -62.87174988 103.25401306 C-60.1457569 105.06835342 -57.25368888 105.40369982 -54.0625 106 C-47.27083333 107.29166667 -47.27083333 107.29166667 -46.1875 108.375 C-46.0629514 110.01730364 -46.01181476 111.66552276 -46 113.3125 C-45.98582031 114.20839844 -45.97164062 115.10429688 -45.95703125 116.02734375 C-46.1875 118.375 -46.1875 118.375 -48.1875 120.375 C-50.85769653 120.61550903 -50.85769653 120.61550903 -54.28955078 120.60205078 C-55.57072784 120.60189972 -56.85190491 120.60174866 -58.17190552 120.60159302 C-59.57554274 120.59137895 -60.9791784 120.58094695 -62.3828125 120.5703125 C-63.81484785 120.56658291 -65.24688575 120.56373569 -66.67892456 120.56173706 C-70.45028717 120.55409627 -74.22149604 120.53444408 -77.99279785 120.5123291 C-81.84022949 120.49188019 -85.68768594 120.4827374 -89.53515625 120.47265625 C-97.08601575 120.45119848 -104.63671676 120.41601286 -112.1875 120.375 C-112.1875 116.415 -112.1875 112.455 -112.1875 108.375 C-109.35262406 107.40517402 -106.53466058 106.46470969 -103.6328125 105.71484375 C-102.29863281 105.36099609 -102.29863281 105.36099609 -100.9375 105 C-100.08671875 104.78601562 -99.2359375 104.57203125 -98.359375 104.3515625 C-96.11792466 103.56711978 -96.11792466 103.56711978 -95.07090759 101.77441406 C-93.87411124 98.52380808 -93.88439672 95.4264593 -93.88110352 92.0078125 C-93.87278 91.2723822 -93.86445648 90.5369519 -93.85588074 89.77923584 C-93.83182158 87.3527698 -93.82301509 84.92657258 -93.81640625 82.5 C-93.80743897 80.81135986 -93.79831711 79.12272054 -93.78904724 77.43408203 C-93.77256736 73.89679025 -93.76485858 70.35959304 -93.76196289 66.82226562 C-93.75657058 62.28905937 -93.71885211 57.75674062 -93.67321873 53.2237854 C-93.6434872 49.73735295 -93.63624025 46.25113562 -93.63523674 42.7645874 C-93.63102901 41.09319988 -93.61857248 39.42181204 -93.59771919 37.75054932 C-93.57087505 35.41376171 -93.5756066 33.0790503 -93.58813477 30.7421875 C-93.57330048 30.05219666 -93.55846619 29.36220581 -93.54318237 28.65130615 C-93.59970152 24.951182 -93.93541548 23.6252821 -96.60540771 20.97438049 C-98.71000677 19.67076533 -100.5686862 18.60831264 -102.88671875 17.77734375 C-103.53833984 17.53306641 -104.18996094 17.28878906 -104.86132812 17.03710938 C-106.21539584 16.54985513 -107.56956424 16.06288063 -108.92382812 15.57617188 C-112.52340115 14.22588428 -113.99328814 13.66631778 -116.1875 10.375 C-116.01648991 7.63883859 -115.50427056 6.65749382 -113.45019531 4.82568359 C-110.93534443 3.21333531 -109.03799857 2.70135105 -106.109375 2.1640625 C-105.12042236 1.97352295 -104.13146973 1.7829834 -103.11254883 1.58666992 C-101.54089966 1.29626831 -101.54089966 1.29626831 -99.9375 1 C-91.16151759 -0.70689922 -82.77776627 -2.78385353 -74.33203125 -5.70703125 C-71.41340694 -6.55905201 -69.20024719 -6.82358032 -66.1875 -6.625 C-65.29145632 -0.57670514 -65.07480557 5.2644576 -65.1875 11.375 C-64.48367188 10.80652344 -63.77984375 10.23804688 -63.0546875 9.65234375 C-44.39300593 -4.94079889 -21.66429148 -14.65037336 0 0 Z " fill="#47474A" transform="translate(827.1875,1607.625)"/>
<path d="M0 0 C11.6985849 10.74575898 17.55099516 26.21806206 18.40234375 41.94140625 C18.93933584 56.55765965 18.6767726 73.48906952 8.15234375 84.94140625 C0.76879526 91.39412277 -6.22078793 92.6158373 -15.94140625 92.32421875 C-25.96362626 91.27488375 -33.91895338 86.06076345 -40.72265625 78.81640625 C-52.25693686 64.49258495 -55.80309846 44.86749853 -54.59765625 26.94140625 C-53.08491756 14.87523072 -50.44801501 4.16390151 -40.640625 -3.65625 C-27.77725582 -12.48598142 -11.69434877 -9.26755158 0 0 Z " fill="#FFFFFF" transform="translate(645.59765625,1623.05859375)"/>
<path d="M0 0 C11.60639934 9.14646885 16.86465597 23.81013052 19 38 C20.25653425 53.24925554 20.39504555 71.36201842 10.78125 84.1640625 C5.31288879 89.80031199 -0.56203163 93.07926308 -8.4453125 93.29248047 C-19.81489827 93.39998808 -28.48119188 90.9287608 -37 83 C-51.48721541 67.39299983 -53.72377315 46.76369526 -53.13623047 26.47705078 C-52.55988912 15.99755379 -48.87971304 6.30973413 -41.125 -0.875 C-28.474574 -11.14752637 -12.83822202 -8.92287341 0 0 Z " fill="#FFFFFF" transform="translate(1110,1622)"/>
<path d="M0 0 C1.50759888 -0.00640503 1.50759888 -0.00640503 3.0456543 -0.01293945 C4.11855713 -0.00351318 5.19145996 0.00591309 6.296875 0.015625 C7.38846924 0.02311768 8.48006348 0.03061035 9.60473633 0.03833008 C25.97666952 0.25581253 42.91268617 2.01316922 55.046875 14.265625 C63.07068003 23.96811477 65.84940309 33.74196289 65.046875 46.265625 C63.90031014 55.58555939 59.78241096 64.67976762 53.046875 71.265625 C42.64016124 79.08026061 32.44442793 80.61908416 19.734375 80.140625 C18.79110352 80.10702881 17.84783203 80.07343262 16.87597656 80.03881836 C9.92013833 79.6449172 4.81025683 78.52657377 -0.703125 74.015625 C-8.168147 64.89170922 -7.1095435 53.18926676 -7.12109375 41.984375 C-7.12442215 40.84907349 -7.12775055 39.71377197 -7.13117981 38.54406738 C-7.1362109 36.16414797 -7.13858933 33.7842216 -7.13842773 31.40429688 C-7.14063529 27.74858307 -7.15888824 24.09316138 -7.17773438 20.4375 C-7.18066481 18.1197927 -7.18265195 15.80208396 -7.18359375 13.484375 C-7.19077927 12.38863159 -7.19796478 11.29288818 -7.20536804 10.16394043 C-7.20229141 9.15528931 -7.19921478 8.14663818 -7.19604492 7.10742188 C-7.19746994 6.21825073 -7.19889496 5.32907959 -7.20036316 4.41296387 C-6.67674988 -0.13477729 -3.87900336 0.00965956 0 0 Z " fill="#FFFFFF" transform="translate(1465.953125,1631.734375)"/>
<path d="M0 0 C5.49291011 4.89630189 8.94622267 9.75535963 9.375 17.1875 C9.17425847 24.28430359 6.68144707 30.57426809 1.875 35.8125 C-9.56827004 46.20210706 -23.85884318 46.8270602 -38.49169922 46.1953125 C-49.39369792 45.34641246 -59.11501103 40.53448299 -66.4375 32.4375 C-70.73857918 27.32767089 -71.46196121 22.286728 -71.3046875 15.77734375 C-70.50186127 8.45927389 -66.65216855 4.07593078 -61.08984375 -0.4609375 C-45.97846494 -11.58969124 -15.84885305 -9.85359403 0 0 Z " fill="#FFFFFF" transform="translate(975,1739)"/>
<path d="M0 0 C7.25681114 5.42104737 11.38126458 11.83672611 13.30078125 20.71875 C14.39928745 30.66192987 13.37340571 39.65013632 7.72265625 48.0703125 C2.55721814 54.46894079 -2.58049751 56.63259512 -10.69921875 57.71875 C-13.3835026 57.79889588 -16.03971059 57.8358347 -18.72265625 57.81640625 C-19.46883209 57.8149913 -20.21500793 57.81357635 -20.98379517 57.81211853 C-23.34731193 57.80655874 -25.71073102 57.79401389 -28.07421875 57.78125 C-29.68489446 57.7762298 -31.29557166 57.7716678 -32.90625 57.76757812 C-36.83727674 57.75660251 -40.76823123 57.73936596 -44.69921875 57.71875 C-46.00664496 28.87539786 -46.00664496 28.87539786 -45.69921875 15.71875 C-45.68133301 14.88988281 -45.66344727 14.06101562 -45.64501953 13.20703125 C-45.5786907 10.58486378 -45.48720526 7.96481429 -45.38671875 5.34375 C-45.36432129 4.52793457 -45.34192383 3.71211914 -45.31884766 2.87158203 C-45.05007547 -2.86019773 -45.05007547 -2.86019773 -43.28369141 -4.97998047 C-33.7264262 -12.82901338 -9.33406279 -5.77890382 0 0 Z " fill="#FFFFFF" transform="translate(1504.69921875,1559.28125)"/>
<path d="M0 0 C8.67217823 7.20687915 11.81585504 16.09023425 12.875 27.0625 C13.32433365 37.36347381 11.53742333 47.62673919 4.55078125 55.66796875 C-0.18851897 59.90970465 -5.41093343 61.51427516 -11.7265625 61.30859375 C-19.03111425 60.31708243 -25.54854173 57.65483706 -30.50390625 52.1171875 C-37.45106514 42.28596004 -40.17639891 30.87875968 -39 19 C-37.37814542 11.54281295 -35.61337737 4.43979892 -29.21875 -0.328125 C-19.63114334 -5.47056857 -9.49521875 -5.74057343 0 0 Z " fill="#FFFFFF" transform="translate(949,1617)"/>
</svg>
